<svg width="768" height="53" viewBox="0 0 768 53" fill="none" xmlns="http://www.w3.org/2000/svg">
<path d="M0.73473 19V1.54545H11.2688V3.42045H2.84837V9.31818H10.7234V11.1932H2.84837V17.125H11.4052V19H0.73473ZM16.8171 11.125V19H14.8058V5.90909H16.7489V7.95455H16.9194C17.2262 7.28977 17.6921 6.75568 18.3171 6.35227C18.9421 5.94318 19.7489 5.73864 20.7376 5.73864C21.6239 5.73864 22.3995 5.92045 23.0643 6.28409C23.729 6.64205 24.2461 7.1875 24.6154 7.92045C24.9847 8.64773 25.1694 9.56818 25.1694 10.6818V19H23.158V10.8182C23.158 9.78977 22.891 8.98864 22.3569 8.41477C21.8228 7.83523 21.0898 7.54545 20.158 7.54545C19.516 7.54545 18.9421 7.68466 18.4364 7.96307C17.9364 8.24148 17.5415 8.64773 17.2518 9.18182C16.962 9.71591 16.8171 10.3636 16.8171 11.125ZM30.8562 11.125V19H28.8448V1.54545H30.8562V7.95455H31.0266C31.3335 7.27841 31.7937 6.74148 32.4073 6.34375C33.0266 5.94034 33.8505 5.73864 34.8789 5.73864C35.771 5.73864 36.5522 5.91761 37.2227 6.27557C37.8931 6.62784 38.413 7.17045 38.7823 7.90341C39.1573 8.63068 39.3448 9.55682 39.3448 10.6818V19H37.3335V10.8182C37.3335 9.77841 37.0636 8.97443 36.5238 8.40625C35.9897 7.83239 35.2482 7.54545 34.2994 7.54545C33.6403 7.54545 33.0494 7.68466 32.5266 7.96307C32.0096 8.24148 31.6005 8.64773 31.2994 9.18182C31.0039 9.71591 30.8562 10.3636 30.8562 11.125ZM46.8768 19.3068C46.0472 19.3068 45.2944 19.1506 44.6183 18.8381C43.9421 18.5199 43.4052 18.0625 43.0075 17.4659C42.6097 16.8636 42.4109 16.1364 42.4109 15.2841C42.4109 14.5341 42.5586 13.9261 42.854 13.4602C43.1495 12.9886 43.5444 12.6193 44.0387 12.3523C44.533 12.0852 45.0785 11.8864 45.6751 11.7557C46.2773 11.6193 46.8825 11.5114 47.4904 11.4318C48.2859 11.3295 48.9308 11.2528 49.4251 11.2017C49.9251 11.1449 50.2887 11.0511 50.516 10.9205C50.7489 10.7898 50.8654 10.5625 50.8654 10.2386V10.1705C50.8654 9.32955 50.6353 8.67614 50.1751 8.21023C49.7205 7.74432 49.0302 7.51136 48.104 7.51136C47.1438 7.51136 46.391 7.72159 45.8455 8.14205C45.3001 8.5625 44.9165 9.01136 44.695 9.48864L42.7859 8.80682C43.1268 8.01136 43.5813 7.39205 44.1495 6.94886C44.7234 6.5 45.3484 6.1875 46.0245 6.01136C46.7063 5.82955 47.3768 5.73864 48.0359 5.73864C48.4563 5.73864 48.9393 5.78977 49.4847 5.89204C50.0359 5.98864 50.5671 6.19034 51.0785 6.49716C51.5955 6.80398 52.0245 7.26705 52.3654 7.88636C52.7063 8.50568 52.8768 9.33523 52.8768 10.375V19H50.8654V17.2273H50.7631C50.6268 17.5114 50.3995 17.8153 50.0813 18.1392C49.7631 18.4631 49.3398 18.7386 48.8114 18.9659C48.283 19.1932 47.6381 19.3068 46.8768 19.3068ZM47.1836 17.5C47.979 17.5 48.6495 17.3438 49.195 17.0312C49.7461 16.7188 50.1609 16.3153 50.4393 15.821C50.7234 15.3267 50.8654 14.8068 50.8654 14.2614V12.4205C50.7802 12.5227 50.5927 12.6165 50.3029 12.7017C50.0188 12.7812 49.6893 12.8523 49.3143 12.9148C48.945 12.9716 48.5842 13.0227 48.2319 13.0682C47.8853 13.108 47.604 13.142 47.3881 13.1705C46.8654 13.2386 46.3768 13.3494 45.9222 13.5028C45.4734 13.6506 45.1097 13.875 44.8313 14.1761C44.5586 14.4716 44.4222 14.875 44.4222 15.3864C44.4222 16.0852 44.6808 16.6136 45.1978 16.9716C45.7205 17.3239 46.3825 17.5 47.1836 17.5ZM58.5593 11.125V19H56.5479V5.90909H58.4911V7.95455H58.6616C58.9684 7.28977 59.4343 6.75568 60.0593 6.35227C60.6843 5.94318 61.4911 5.73864 62.4798 5.73864C63.3661 5.73864 64.1417 5.92045 64.8065 6.28409C65.4712 6.64205 65.9883 7.1875 66.3576 7.92045C66.7269 8.64773 66.9116 9.56818 66.9116 10.6818V19H64.9002V10.8182C64.9002 9.78977 64.6332 8.98864 64.0991 8.41477C63.565 7.83523 62.832 7.54545 61.9002 7.54545C61.2582 7.54545 60.6843 7.68466 60.1786 7.96307C59.6786 8.24148 59.2837 8.64773 58.994 9.18182C58.7042 9.71591 58.5593 10.3636 58.5593 11.125ZM75.9052 19.2727C74.6779 19.2727 73.6211 18.983 72.7347 18.4034C71.8484 17.8239 71.1665 17.0256 70.6893 16.0085C70.212 14.9915 69.9734 13.8295 69.9734 12.5227C69.9734 11.1932 70.2177 10.0199 70.7063 9.00284C71.2006 7.98011 71.8881 7.18182 72.7688 6.60795C73.6552 6.02841 74.6893 5.73864 75.8711 5.73864C76.7915 5.73864 77.6211 5.90909 78.3597 6.25C79.0984 6.59091 79.7035 7.06818 80.1751 7.68182C80.6467 8.29545 80.9393 9.01136 81.0529 9.82955H79.0415C78.8881 9.23295 78.5472 8.70455 78.0188 8.24432C77.4961 7.77841 76.7915 7.54545 75.9052 7.54545C75.1211 7.54545 74.4336 7.75 73.8427 8.15909C73.2575 8.5625 72.8001 9.13352 72.4705 9.87216C72.1467 10.6051 71.9847 11.4659 71.9847 12.4545C71.9847 13.4659 72.1438 14.3466 72.462 15.0966C72.7859 15.8466 73.2404 16.429 73.8256 16.8438C74.4165 17.2585 75.1097 17.4659 75.9052 17.4659C76.4279 17.4659 76.9023 17.375 77.3285 17.1932C77.7546 17.0114 78.1154 16.75 78.4109 16.4091C78.7063 16.0682 78.9165 15.6591 79.0415 15.1818H81.0529C80.9393 15.9545 80.658 16.6506 80.2092 17.2699C79.766 17.8835 79.1779 18.3722 78.445 18.7358C77.7177 19.0938 76.8711 19.2727 75.9052 19.2727ZM89.4819 19.2727C88.2205 19.2727 87.1325 18.9943 86.2177 18.4375C85.3086 17.875 84.6069 17.0909 84.1126 16.0852C83.6239 15.0739 83.3796 13.8977 83.3796 12.5568C83.3796 11.2159 83.6239 10.0341 84.1126 9.01136C84.6069 7.98295 85.2944 7.18182 86.1751 6.60795C87.0614 6.02841 88.0955 5.73864 89.2773 5.73864C89.9592 5.73864 90.6325 5.85227 91.2972 6.07954C91.962 6.30682 92.5671 6.67614 93.1126 7.1875C93.658 7.69318 94.0927 8.36364 94.4165 9.19886C94.7404 10.0341 94.9023 11.0625 94.9023 12.2841V13.1364H84.8114V11.3977H92.8569C92.8569 10.6591 92.7092 10 92.4137 9.42045C92.1239 8.84091 91.7092 8.38352 91.1694 8.0483C90.6353 7.71307 90.0046 7.54545 89.2773 7.54545C88.4762 7.54545 87.783 7.74432 87.1978 8.14205C86.6183 8.53409 86.1722 9.04545 85.8597 9.67614C85.5472 10.3068 85.391 10.983 85.391 11.7045V12.8636C85.391 13.8523 85.5614 14.6903 85.9023 15.3778C86.2489 16.0597 86.729 16.5795 87.3427 16.9375C87.9563 17.2898 88.6694 17.4659 89.4819 17.4659C90.0103 17.4659 90.4876 17.392 90.9137 17.2443C91.3455 17.0909 91.7177 16.8636 92.0302 16.5625C92.3427 16.2557 92.5842 15.875 92.7546 15.4205L94.6978 15.9659C94.4933 16.625 94.1495 17.2045 93.6665 17.7045C93.1836 18.1989 92.587 18.5852 91.8768 18.8636C91.1665 19.1364 90.3683 19.2727 89.4819 19.2727ZM110.201 19.2727C108.939 19.2727 107.851 18.9943 106.936 18.4375C106.027 17.875 105.326 17.0909 104.831 16.0852C104.343 15.0739 104.098 13.8977 104.098 12.5568C104.098 11.2159 104.343 10.0341 104.831 9.01136C105.326 7.98295 106.013 7.18182 106.894 6.60795C107.78 6.02841 108.814 5.73864 109.996 5.73864C110.678 5.73864 111.351 5.85227 112.016 6.07954C112.681 6.30682 113.286 6.67614 113.831 7.1875C114.377 7.69318 114.811 8.36364 115.135 9.19886C115.459 10.0341 115.621 11.0625 115.621 12.2841V13.1364H105.53V11.3977H113.576C113.576 10.6591 113.428 10 113.132 9.42045C112.843 8.84091 112.428 8.38352 111.888 8.0483C111.354 7.71307 110.723 7.54545 109.996 7.54545C109.195 7.54545 108.502 7.74432 107.917 8.14205C107.337 8.53409 106.891 9.04545 106.578 9.67614C106.266 10.3068 106.11 10.983 106.11 11.7045V12.8636C106.11 13.8523 106.28 14.6903 106.621 15.3778C106.968 16.0597 107.448 16.5795 108.061 16.9375C108.675 17.2898 109.388 17.4659 110.201 17.4659C110.729 17.4659 111.206 17.392 111.632 17.2443C112.064 17.0909 112.436 16.8636 112.749 16.5625C113.061 16.2557 113.303 15.875 113.473 15.4205L115.417 15.9659C115.212 16.625 114.868 17.2045 114.385 17.7045C113.902 18.1989 113.306 18.5852 112.596 18.8636C111.885 19.1364 111.087 19.2727 110.201 19.2727ZM128.987 5.90909L124.146 19H122.1L117.26 5.90909H119.441L123.055 16.3409H123.191L126.805 5.90909H128.987ZM136.662 19.2727C135.4 19.2727 134.312 18.9943 133.397 18.4375C132.488 17.875 131.787 17.0909 131.292 16.0852C130.804 15.0739 130.559 13.8977 130.559 12.5568C130.559 11.2159 130.804 10.0341 131.292 9.01136C131.787 7.98295 132.474 7.18182 133.355 6.60795C134.241 6.02841 135.275 5.73864 136.457 5.73864C137.139 5.73864 137.812 5.85227 138.477 6.07954C139.142 6.30682 139.747 6.67614 140.292 7.1875C140.838 7.69318 141.272 8.36364 141.596 9.19886C141.92 10.0341 142.082 11.0625 142.082 12.2841V13.1364H131.991V11.3977H140.037C140.037 10.6591 139.889 10 139.593 9.42045C139.304 8.84091 138.889 8.38352 138.349 8.0483C137.815 7.71307 137.184 7.54545 136.457 7.54545C135.656 7.54545 134.963 7.74432 134.377 8.14205C133.798 8.53409 133.352 9.04545 133.039 9.67614C132.727 10.3068 132.571 10.983 132.571 11.7045V12.8636C132.571 13.8523 132.741 14.6903 133.082 15.3778C133.429 16.0597 133.909 16.5795 134.522 16.9375C135.136 17.2898 135.849 17.4659 136.662 17.4659C137.19 17.4659 137.667 17.392 138.093 17.2443C138.525 17.0909 138.897 16.8636 139.21 16.5625C139.522 16.2557 139.764 15.875 139.934 15.4205L141.877 15.9659C141.673 16.625 141.329 17.2045 140.846 17.7045C140.363 18.1989 139.767 18.5852 139.056 18.8636C138.346 19.1364 137.548 19.2727 136.662 19.2727ZM145.142 19V5.90909H147.085V7.88636H147.221C147.46 7.23864 147.892 6.71307 148.517 6.30966C149.142 5.90625 149.846 5.70454 150.63 5.70454C150.778 5.70454 150.963 5.70739 151.184 5.71307C151.406 5.71875 151.574 5.72727 151.687 5.73864V7.78409C151.619 7.76705 151.463 7.74148 151.218 7.70739C150.98 7.66761 150.727 7.64773 150.46 7.64773C149.824 7.64773 149.255 7.78125 148.755 8.0483C148.261 8.30966 147.869 8.6733 147.579 9.1392C147.295 9.59943 147.153 10.125 147.153 10.7159V19H145.142ZM155.765 23.9091C155.424 23.9091 155.12 23.8807 154.853 23.8239C154.586 23.7727 154.402 23.7216 154.299 23.6705L154.811 21.8977C155.299 22.0227 155.731 22.0682 156.106 22.0341C156.481 22 156.814 21.8324 157.103 21.5312C157.399 21.2358 157.669 20.7557 157.913 20.0909L158.288 19.0682L153.447 5.90909H155.629L159.243 16.3409H159.379L162.993 5.90909H165.174L159.618 20.9091C159.368 21.5852 159.058 22.1449 158.689 22.5881C158.319 23.0369 157.89 23.3693 157.402 23.5852C156.919 23.8011 156.373 23.9091 155.765 23.9091ZM173.522 5.90909V7.61364H166.738V5.90909H173.522ZM168.716 2.77273H170.727V15.25C170.727 15.8182 170.809 16.2443 170.974 16.5284C171.145 16.8068 171.36 16.9943 171.622 17.0909C171.889 17.1818 172.17 17.2273 172.466 17.2273C172.687 17.2273 172.869 17.2159 173.011 17.1932C173.153 17.1648 173.267 17.142 173.352 17.125L173.761 18.9318C173.625 18.983 173.434 19.0341 173.19 19.0852C172.946 19.142 172.636 19.1705 172.261 19.1705C171.693 19.1705 171.136 19.0483 170.591 18.804C170.051 18.5597 169.602 18.1875 169.244 17.6875C168.892 17.1875 168.716 16.5568 168.716 15.7955V2.77273ZM178.841 11.125V19H176.829V1.54545H178.841V7.95455H179.011C179.318 7.27841 179.778 6.74148 180.392 6.34375C181.011 5.94034 181.835 5.73864 182.863 5.73864C183.755 5.73864 184.537 5.91761 185.207 6.27557C185.877 6.62784 186.397 7.17045 186.767 7.90341C187.142 8.63068 187.329 9.55682 187.329 10.6818V19H185.318V10.8182C185.318 9.77841 185.048 8.97443 184.508 8.40625C183.974 7.83239 183.233 7.54545 182.284 7.54545C181.625 7.54545 181.034 7.68466 180.511 7.96307C179.994 8.24148 179.585 8.64773 179.284 9.18182C178.988 9.71591 178.841 10.3636 178.841 11.125ZM191.009 19V5.90909H193.02V19H191.009ZM192.032 3.72727C191.64 3.72727 191.301 3.59375 191.017 3.3267C190.739 3.05966 190.6 2.73864 190.6 2.36364C190.6 1.98864 190.739 1.66761 191.017 1.40057C191.301 1.13352 191.64 1 192.032 1C192.424 1 192.759 1.13352 193.037 1.40057C193.321 1.66761 193.463 1.98864 193.463 2.36364C193.463 2.73864 193.321 3.05966 193.037 3.3267C192.759 3.59375 192.424 3.72727 192.032 3.72727ZM198.716 11.125V19H196.704V5.90909H198.647V7.95455H198.818C199.125 7.28977 199.591 6.75568 200.216 6.35227C200.841 5.94318 201.647 5.73864 202.636 5.73864C203.522 5.73864 204.298 5.92045 204.963 6.28409C205.627 6.64205 206.145 7.1875 206.514 7.92045C206.883 8.64773 207.068 9.56818 207.068 10.6818V19H205.056V10.8182C205.056 9.78977 204.789 8.98864 204.255 8.41477C203.721 7.83523 202.988 7.54545 202.056 7.54545C201.414 7.54545 200.841 7.68466 200.335 7.96307C199.835 8.24148 199.44 8.64773 199.15 9.18182C198.86 9.71591 198.716 10.3636 198.716 11.125ZM216.027 24.1818C215.056 24.1818 214.221 24.0568 213.522 23.8068C212.823 23.5625 212.24 23.2386 211.775 22.8352C211.314 22.4375 210.948 22.0114 210.675 21.5568L212.277 20.4318C212.459 20.6705 212.689 20.9432 212.968 21.25C213.246 21.5625 213.627 21.8324 214.11 22.0597C214.598 22.2926 215.238 22.4091 216.027 22.4091C217.084 22.4091 217.956 22.1534 218.644 21.642C219.331 21.1307 219.675 20.3295 219.675 19.2386V16.5795H219.505C219.357 16.8182 219.147 17.1136 218.874 17.4659C218.607 17.8125 218.221 18.1222 217.715 18.3949C217.215 18.6619 216.539 18.7955 215.686 18.7955C214.63 18.7955 213.681 18.5455 212.84 18.0455C212.005 17.5455 211.343 16.8182 210.854 15.8636C210.371 14.9091 210.13 13.75 210.13 12.3864C210.13 11.0455 210.365 9.87784 210.837 8.88352C211.309 7.88352 211.965 7.1108 212.806 6.56534C213.647 6.0142 214.618 5.73864 215.721 5.73864C216.573 5.73864 217.249 5.88068 217.749 6.16477C218.255 6.44318 218.641 6.76136 218.908 7.11932C219.181 7.47159 219.391 7.76136 219.539 7.98864H219.743V5.90909H221.686V19.375C221.686 20.5 221.431 21.4148 220.919 22.1193C220.414 22.8295 219.732 23.3494 218.874 23.679C218.022 24.0142 217.073 24.1818 216.027 24.1818ZM215.959 16.9886C216.766 16.9886 217.448 16.804 218.005 16.4347C218.561 16.0653 218.985 15.5341 219.275 14.8409C219.564 14.1477 219.709 13.3182 219.709 12.3523C219.709 11.4091 219.567 10.5767 219.283 9.85511C218.999 9.13352 218.578 8.56818 218.022 8.15909C217.465 7.75 216.777 7.54545 215.959 7.54545C215.107 7.54545 214.397 7.76136 213.828 8.19318C213.266 8.625 212.843 9.20455 212.559 9.93182C212.28 10.6591 212.141 11.4659 212.141 12.3523C212.141 13.2614 212.283 14.0653 212.567 14.7642C212.857 15.4574 213.283 16.0028 213.846 16.4006C214.414 16.7926 215.118 16.9886 215.959 16.9886ZM233.414 23.9091C233.073 23.9091 232.769 23.8807 232.502 23.8239C232.235 23.7727 232.05 23.7216 231.948 23.6705L232.459 21.8977C232.948 22.0227 233.38 22.0682 233.755 22.0341C234.13 22 234.462 21.8324 234.752 21.5312C235.047 21.2358 235.317 20.7557 235.561 20.0909L235.936 19.0682L231.096 5.90909H233.277L236.891 16.3409H237.027L240.641 5.90909H242.823L237.266 20.9091C237.016 21.5852 236.706 22.1449 236.337 22.5881C235.968 23.0369 235.539 23.3693 235.05 23.5852C234.567 23.8011 234.022 23.9091 233.414 23.9091ZM250.327 19.2727C249.145 19.2727 248.108 18.9915 247.216 18.429C246.33 17.8665 245.637 17.0795 245.137 16.0682C244.642 15.0568 244.395 13.875 244.395 12.5227C244.395 11.1591 244.642 9.96875 245.137 8.9517C245.637 7.93466 246.33 7.14489 247.216 6.58239C248.108 6.01989 249.145 5.73864 250.327 5.73864C251.509 5.73864 252.543 6.01989 253.429 6.58239C254.321 7.14489 255.015 7.93466 255.509 8.9517C256.009 9.96875 256.259 11.1591 256.259 12.5227C256.259 13.875 256.009 15.0568 255.509 16.0682C255.015 17.0795 254.321 17.8665 253.429 18.429C252.543 18.9915 251.509 19.2727 250.327 19.2727ZM250.327 17.4659C251.225 17.4659 251.963 17.2358 252.543 16.7756C253.123 16.3153 253.551 15.7102 253.83 14.9602C254.108 14.2102 254.248 13.3977 254.248 12.5227C254.248 11.6477 254.108 10.8324 253.83 10.0767C253.551 9.32102 253.123 8.71023 252.543 8.24432C251.963 7.77841 251.225 7.54545 250.327 7.54545C249.429 7.54545 248.691 7.77841 248.111 8.24432C247.532 8.71023 247.103 9.32102 246.824 10.0767C246.546 10.8324 246.407 11.6477 246.407 12.5227C246.407 13.3977 246.546 14.2102 246.824 14.9602C247.103 15.7102 247.532 16.3153 248.111 16.7756C248.691 17.2358 249.429 17.4659 250.327 17.4659ZM267.579 13.6477V5.90909H269.591V19H267.579V16.7841H267.443C267.136 17.4489 266.659 18.0142 266.011 18.4801C265.363 18.9403 264.545 19.1705 263.556 19.1705C262.738 19.1705 262.011 18.9915 261.375 18.6335C260.738 18.2699 260.238 17.7244 259.875 16.9972C259.511 16.2642 259.329 15.3409 259.329 14.2273V5.90909H261.341V14.0909C261.341 15.0455 261.608 15.8068 262.142 16.375C262.681 16.9432 263.369 17.2273 264.204 17.2273C264.704 17.2273 265.213 17.0994 265.73 16.8438C266.252 16.5881 266.69 16.196 267.042 15.6676C267.4 15.1392 267.579 14.4659 267.579 13.6477ZM284.968 19.2727C283.877 19.2727 282.914 18.9972 282.078 18.446C281.243 17.8892 280.59 17.1051 280.118 16.0938C279.647 15.0767 279.411 13.875 279.411 12.4886C279.411 11.1136 279.647 9.92045 280.118 8.90909C280.59 7.89773 281.246 7.11648 282.087 6.56534C282.928 6.0142 283.9 5.73864 285.002 5.73864C285.854 5.73864 286.527 5.88068 287.022 6.16477C287.522 6.44318 287.902 6.76136 288.164 7.11932C288.431 7.47159 288.638 7.76136 288.786 7.98864H288.956V1.54545H290.968V19H289.025V16.9886H288.786C288.638 17.2273 288.428 17.5284 288.155 17.892C287.882 18.25 287.493 18.571 286.988 18.8551C286.482 19.1335 285.809 19.2727 284.968 19.2727ZM285.24 17.4659C286.047 17.4659 286.729 17.2557 287.286 16.8352C287.843 16.4091 288.266 15.821 288.556 15.071C288.846 14.3153 288.99 13.4432 288.99 12.4545C288.99 11.4773 288.848 10.6222 288.564 9.8892C288.28 9.15057 287.86 8.5767 287.303 8.16761C286.746 7.75284 286.059 7.54545 285.24 7.54545C284.388 7.54545 283.678 7.7642 283.11 8.2017C282.547 8.63352 282.124 9.22159 281.84 9.96591C281.561 10.7045 281.422 11.5341 281.422 12.4545C281.422 13.3864 281.564 14.233 281.848 14.9943C282.138 15.75 282.564 16.3523 283.127 16.8011C283.695 17.2443 284.4 17.4659 285.24 17.4659ZM300.249 19.2727C299.067 19.2727 298.03 18.9915 297.138 18.429C296.252 17.8665 295.559 17.0795 295.059 16.0682C294.564 15.0568 294.317 13.875 294.317 12.5227C294.317 11.1591 294.564 9.96875 295.059 8.9517C295.559 7.93466 296.252 7.14489 297.138 6.58239C298.03 6.01989 299.067 5.73864 300.249 5.73864C301.431 5.73864 302.465 6.01989 303.351 6.58239C304.243 7.14489 304.936 7.93466 305.431 8.9517C305.931 9.96875 306.181 11.1591 306.181 12.5227C306.181 13.875 305.931 15.0568 305.431 16.0682C304.936 17.0795 304.243 17.8665 303.351 18.429C302.465 18.9915 301.431 19.2727 300.249 19.2727ZM300.249 17.4659C301.147 17.4659 301.885 17.2358 302.465 16.7756C303.044 16.3153 303.473 15.7102 303.752 14.9602C304.03 14.2102 304.169 13.3977 304.169 12.5227C304.169 11.6477 304.03 10.8324 303.752 10.0767C303.473 9.32102 303.044 8.71023 302.465 8.24432C301.885 7.77841 301.147 7.54545 300.249 7.54545C299.351 7.54545 298.613 7.77841 298.033 8.24432C297.453 8.71023 297.025 9.32102 296.746 10.0767C296.468 10.8324 296.328 11.6477 296.328 12.5227C296.328 13.3977 296.468 14.2102 296.746 14.9602C297.025 15.7102 297.453 16.3153 298.033 16.7756C298.613 17.2358 299.351 17.4659 300.249 17.4659ZM316.274 19V1.54545H318.285V7.98864H318.456C318.603 7.76136 318.808 7.47159 319.069 7.11932C319.336 6.76136 319.717 6.44318 320.211 6.16477C320.711 5.88068 321.387 5.73864 322.24 5.73864C323.342 5.73864 324.314 6.0142 325.154 6.56534C325.995 7.11648 326.652 7.89773 327.123 8.90909C327.595 9.92045 327.831 11.1136 327.831 12.4886C327.831 13.875 327.595 15.0767 327.123 16.0938C326.652 17.1051 325.998 17.8892 325.163 18.446C324.328 18.9972 323.365 19.2727 322.274 19.2727C321.433 19.2727 320.76 19.1335 320.254 18.8551C319.748 18.571 319.359 18.25 319.086 17.892C318.814 17.5284 318.603 17.2273 318.456 16.9886H318.217V19H316.274ZM318.251 12.4545C318.251 13.4432 318.396 14.3153 318.686 15.071C318.975 15.821 319.399 16.4091 319.956 16.8352C320.512 17.2557 321.194 17.4659 322.001 17.4659C322.842 17.4659 323.544 17.2443 324.106 16.8011C324.674 16.3523 325.1 15.75 325.385 14.9943C325.674 14.233 325.819 13.3864 325.819 12.4545C325.819 11.5341 325.677 10.7045 325.393 9.96591C325.115 9.22159 324.691 8.63352 324.123 8.2017C323.561 7.7642 322.853 7.54545 322.001 7.54545C321.183 7.54545 320.495 7.75284 319.939 8.16761C319.382 8.5767 318.961 9.15057 318.677 9.8892C318.393 10.6222 318.251 11.4773 318.251 12.4545ZM331.734 23.9091C331.393 23.9091 331.089 23.8807 330.822 23.8239C330.555 23.7727 330.37 23.7216 330.268 23.6705L330.779 21.8977C331.268 22.0227 331.7 22.0682 332.075 22.0341C332.45 22 332.782 21.8324 333.072 21.5312C333.368 21.2358 333.637 20.7557 333.882 20.0909L334.257 19.0682L329.416 5.90909H331.598L335.211 16.3409H335.348L338.961 5.90909H341.143L335.586 20.9091C335.336 21.5852 335.027 22.1449 334.657 22.5881C334.288 23.0369 333.859 23.3693 333.37 23.5852C332.887 23.8011 332.342 23.9091 331.734 23.9091ZM358.798 13.6477V5.90909H360.809V19H358.798V16.7841H358.662C358.355 17.4489 357.877 18.0142 357.23 18.4801C356.582 18.9403 355.764 19.1705 354.775 19.1705C353.957 19.1705 353.23 18.9915 352.593 18.6335C351.957 18.2699 351.457 17.7244 351.093 16.9972C350.73 16.2642 350.548 15.3409 350.548 14.2273V5.90909H352.559V14.0909C352.559 15.0455 352.826 15.8068 353.36 16.375C353.9 16.9432 354.588 17.2273 355.423 17.2273C355.923 17.2273 356.431 17.0994 356.949 16.8438C357.471 16.5881 357.909 16.196 358.261 15.6676C358.619 15.1392 358.798 14.4659 358.798 13.6477ZM373.766 8.84091L371.959 9.35227C371.846 9.05114 371.678 8.75852 371.456 8.47443C371.24 8.18466 370.945 7.94602 370.57 7.75852C370.195 7.57102 369.715 7.47727 369.13 7.47727C368.328 7.47727 367.661 7.66193 367.127 8.03125C366.598 8.39489 366.334 8.85795 366.334 9.42045C366.334 9.92045 366.516 10.3153 366.88 10.6051C367.243 10.8949 367.811 11.1364 368.584 11.3295L370.527 11.8068C371.698 12.0909 372.57 12.5256 373.144 13.1108C373.718 13.6903 374.005 14.4375 374.005 15.3523C374.005 16.1023 373.789 16.7727 373.357 17.3636C372.931 17.9545 372.334 18.4205 371.567 18.7614C370.8 19.1023 369.908 19.2727 368.891 19.2727C367.556 19.2727 366.451 18.983 365.576 18.4034C364.701 17.8239 364.147 16.9773 363.914 15.8636L365.823 15.3864C366.005 16.0909 366.348 16.6193 366.854 16.9716C367.365 17.3239 368.033 17.5 368.857 17.5C369.794 17.5 370.539 17.3011 371.09 16.9034C371.647 16.5 371.925 16.017 371.925 15.4545C371.925 15 371.766 14.6193 371.448 14.3125C371.13 14 370.641 13.767 369.982 13.6136L367.8 13.1023C366.601 12.8182 365.721 12.3778 365.158 11.7812C364.601 11.179 364.323 10.4261 364.323 9.52273C364.323 8.78409 364.53 8.13068 364.945 7.5625C365.365 6.99432 365.936 6.5483 366.658 6.22443C367.385 5.90057 368.209 5.73864 369.13 5.73864C370.425 5.73864 371.442 6.02273 372.181 6.59091C372.925 7.15909 373.453 7.90909 373.766 8.84091ZM377.032 19V5.90909H379.044V19H377.032ZM378.055 3.72727C377.663 3.72727 377.325 3.59375 377.041 3.3267C376.762 3.05966 376.623 2.73864 376.623 2.36364C376.623 1.98864 376.762 1.66761 377.041 1.40057C377.325 1.13352 377.663 1 378.055 1C378.447 1 378.782 1.13352 379.061 1.40057C379.345 1.66761 379.487 1.98864 379.487 2.36364C379.487 2.73864 379.345 3.05966 379.061 3.3267C378.782 3.59375 378.447 3.72727 378.055 3.72727ZM384.739 11.125V19H382.728V5.90909H384.671V7.95455H384.841C385.148 7.28977 385.614 6.75568 386.239 6.35227C386.864 5.94318 387.671 5.73864 388.659 5.73864C389.546 5.73864 390.321 5.92045 390.986 6.28409C391.651 6.64205 392.168 7.1875 392.537 7.92045C392.907 8.64773 393.091 9.56818 393.091 10.6818V19H391.08V10.8182C391.08 9.78977 390.813 8.98864 390.279 8.41477C389.745 7.83523 389.012 7.54545 388.08 7.54545C387.438 7.54545 386.864 7.68466 386.358 7.96307C385.858 8.24148 385.463 8.64773 385.174 9.18182C384.884 9.71591 384.739 10.3636 384.739 11.125ZM402.051 24.1818C401.079 24.1818 400.244 24.0568 399.545 23.8068C398.846 23.5625 398.264 23.2386 397.798 22.8352C397.338 22.4375 396.971 22.0114 396.699 21.5568L398.301 20.4318C398.483 20.6705 398.713 20.9432 398.991 21.25C399.27 21.5625 399.65 21.8324 400.133 22.0597C400.622 22.2926 401.261 22.4091 402.051 22.4091C403.108 22.4091 403.98 22.1534 404.667 21.642C405.355 21.1307 405.699 20.3295 405.699 19.2386V16.5795H405.528C405.38 16.8182 405.17 17.1136 404.897 17.4659C404.63 17.8125 404.244 18.1222 403.738 18.3949C403.238 18.6619 402.562 18.7955 401.71 18.7955C400.653 18.7955 399.704 18.5455 398.863 18.0455C398.028 17.5455 397.366 16.8182 396.877 15.8636C396.395 14.9091 396.153 13.75 396.153 12.3864C396.153 11.0455 396.389 9.87784 396.86 8.88352C397.332 7.88352 397.988 7.1108 398.829 6.56534C399.67 6.0142 400.642 5.73864 401.744 5.73864C402.596 5.73864 403.272 5.88068 403.772 6.16477C404.278 6.44318 404.664 6.76136 404.931 7.11932C405.204 7.47159 405.414 7.76136 405.562 7.98864H405.767V5.90909H407.71V19.375C407.71 20.5 407.454 21.4148 406.943 22.1193C406.437 22.8295 405.755 23.3494 404.897 23.679C404.045 24.0142 403.096 24.1818 402.051 24.1818ZM401.983 16.9886C402.789 16.9886 403.471 16.804 404.028 16.4347C404.585 16.0653 405.008 15.5341 405.298 14.8409C405.588 14.1477 405.733 13.3182 405.733 12.3523C405.733 11.4091 405.591 10.5767 405.306 9.85511C405.022 9.13352 404.602 8.56818 404.045 8.15909C403.488 7.75 402.801 7.54545 401.983 7.54545C401.13 7.54545 400.42 7.76136 399.852 8.19318C399.289 8.625 398.866 9.20455 398.582 9.93182C398.304 10.6591 398.164 11.4659 398.164 12.3523C398.164 13.2614 398.306 14.0653 398.591 14.7642C398.88 15.4574 399.306 16.0028 399.869 16.4006C400.437 16.7926 401.142 16.9886 401.983 16.9886ZM423.835 5.90909V7.61364H417.051V5.90909H423.835ZM419.028 2.77273H421.039V15.25C421.039 15.8182 421.122 16.2443 421.287 16.5284C421.457 16.8068 421.673 16.9943 421.934 17.0909C422.201 17.1818 422.483 17.2273 422.778 17.2273C423 17.2273 423.181 17.2159 423.324 17.1932C423.466 17.1648 423.579 17.142 423.664 17.125L424.074 18.9318C423.937 18.983 423.747 19.0341 423.502 19.0852C423.258 19.142 422.949 19.1705 422.574 19.1705C422.005 19.1705 421.449 19.0483 420.903 18.804C420.363 18.5597 419.914 18.1875 419.556 17.6875C419.204 17.1875 419.028 16.5568 419.028 15.7955V2.77273ZM429.153 11.125V19H427.142V1.54545H429.153V7.95455H429.324C429.63 7.27841 430.091 6.74148 430.704 6.34375C431.324 5.94034 432.147 5.73864 433.176 5.73864C434.068 5.73864 434.849 5.91761 435.52 6.27557C436.19 6.62784 436.71 7.17045 437.079 7.90341C437.454 8.63068 437.642 9.55682 437.642 10.6818V19H435.63V10.8182C435.63 9.77841 435.36 8.97443 434.821 8.40625C434.287 7.83239 433.545 7.54545 432.596 7.54545C431.937 7.54545 431.346 7.68466 430.824 7.96307C430.306 8.24148 429.897 8.64773 429.596 9.18182C429.301 9.71591 429.153 10.3636 429.153 11.125ZM446.81 19.2727C445.549 19.2727 444.461 18.9943 443.546 18.4375C442.637 17.875 441.935 17.0909 441.441 16.0852C440.952 15.0739 440.708 13.8977 440.708 12.5568C440.708 11.2159 440.952 10.0341 441.441 9.01136C441.935 7.98295 442.623 7.18182 443.503 6.60795C444.39 6.02841 445.424 5.73864 446.605 5.73864C447.287 5.73864 447.961 5.85227 448.625 6.07954C449.29 6.30682 449.895 6.67614 450.441 7.1875C450.986 7.69318 451.421 8.36364 451.745 9.19886C452.069 10.0341 452.23 11.0625 452.23 12.2841V13.1364H442.14V11.3977H450.185C450.185 10.6591 450.037 10 449.742 9.42045C449.452 8.84091 449.037 8.38352 448.498 8.0483C447.963 7.71307 447.333 7.54545 446.605 7.54545C445.804 7.54545 445.111 7.74432 444.526 8.14205C443.946 8.53409 443.5 9.04545 443.188 9.67614C442.875 10.3068 442.719 10.983 442.719 11.7045V12.8636C442.719 13.8523 442.89 14.6903 443.23 15.3778C443.577 16.0597 444.057 16.5795 444.671 16.9375C445.284 17.2898 445.998 17.4659 446.81 17.4659C447.338 17.4659 447.816 17.392 448.242 17.2443C448.674 17.0909 449.046 16.8636 449.358 16.5625C449.671 16.2557 449.912 15.875 450.083 15.4205L452.026 15.9659C451.821 16.625 451.478 17.2045 450.995 17.7045C450.512 18.1989 449.915 18.5852 449.205 18.8636C448.495 19.1364 447.696 19.2727 446.81 19.2727ZM464.051 1.54545V19H462.04V1.54545H464.051ZM471.588 19.3068C470.758 19.3068 470.005 19.1506 469.329 18.8381C468.653 18.5199 468.116 18.0625 467.718 17.4659C467.321 16.8636 467.122 16.1364 467.122 15.2841C467.122 14.5341 467.27 13.9261 467.565 13.4602C467.86 12.9886 468.255 12.6193 468.75 12.3523C469.244 12.0852 469.789 11.8864 470.386 11.7557C470.988 11.6193 471.593 11.5114 472.201 11.4318C472.997 11.3295 473.642 11.2528 474.136 11.2017C474.636 11.1449 475 11.0511 475.227 10.9205C475.46 10.7898 475.576 10.5625 475.576 10.2386V10.1705C475.576 9.32955 475.346 8.67614 474.886 8.21023C474.431 7.74432 473.741 7.51136 472.815 7.51136C471.855 7.51136 471.102 7.72159 470.556 8.14205C470.011 8.5625 469.627 9.01136 469.406 9.48864L467.497 8.80682C467.838 8.01136 468.292 7.39205 468.86 6.94886C469.434 6.5 470.059 6.1875 470.735 6.01136C471.417 5.82955 472.088 5.73864 472.747 5.73864C473.167 5.73864 473.65 5.78977 474.196 5.89204C474.747 5.98864 475.278 6.19034 475.789 6.49716C476.306 6.80398 476.735 7.26705 477.076 7.88636C477.417 8.50568 477.588 9.33523 477.588 10.375V19H475.576V17.2273H475.474C475.338 17.5114 475.11 17.8153 474.792 18.1392C474.474 18.4631 474.051 18.7386 473.522 18.9659C472.994 19.1932 472.349 19.3068 471.588 19.3068ZM471.895 17.5C472.69 17.5 473.36 17.3438 473.906 17.0312C474.457 16.7188 474.872 16.3153 475.15 15.821C475.434 15.3267 475.576 14.8068 475.576 14.2614V12.4205C475.491 12.5227 475.304 12.6165 475.014 12.7017C474.73 12.7812 474.4 12.8523 474.025 12.9148C473.656 12.9716 473.295 13.0227 472.943 13.0682C472.596 13.108 472.315 13.142 472.099 13.1705C471.576 13.2386 471.088 13.3494 470.633 13.5028C470.184 13.6506 469.821 13.875 469.542 14.1761C469.27 14.4716 469.133 14.875 469.133 15.3864C469.133 16.0852 469.392 16.6136 469.909 16.9716C470.431 17.3239 471.093 17.5 471.895 17.5ZM486.952 5.90909V7.61364H480.168V5.90909H486.952ZM482.145 2.77273H484.157V15.25C484.157 15.8182 484.239 16.2443 484.404 16.5284C484.574 16.8068 484.79 16.9943 485.051 17.0909C485.319 17.1818 485.6 17.2273 485.895 17.2273C486.117 17.2273 486.299 17.2159 486.441 17.1932C486.583 17.1648 486.696 17.142 486.782 17.125L487.191 18.9318C487.054 18.983 486.864 19.0341 486.62 19.0852C486.375 19.142 486.066 19.1705 485.691 19.1705C485.123 19.1705 484.566 19.0483 484.02 18.804C483.48 18.5597 483.032 18.1875 482.674 17.6875C482.321 17.1875 482.145 16.5568 482.145 15.7955V2.77273ZM495.326 19.2727C494.064 19.2727 492.976 18.9943 492.061 18.4375C491.152 17.875 490.451 17.0909 489.956 16.0852C489.468 15.0739 489.223 13.8977 489.223 12.5568C489.223 11.2159 489.468 10.0341 489.956 9.01136C490.451 7.98295 491.138 7.18182 492.019 6.60795C492.905 6.02841 493.939 5.73864 495.121 5.73864C495.803 5.73864 496.476 5.85227 497.141 6.07954C497.806 6.30682 498.411 6.67614 498.956 7.1875C499.502 7.69318 499.936 8.36364 500.26 9.19886C500.584 10.0341 500.746 11.0625 500.746 12.2841V13.1364H490.655V11.3977H498.701C498.701 10.6591 498.553 10 498.257 9.42045C497.968 8.84091 497.553 8.38352 497.013 8.0483C496.479 7.71307 495.848 7.54545 495.121 7.54545C494.32 7.54545 493.627 7.74432 493.042 8.14205C492.462 8.53409 492.016 9.04545 491.703 9.67614C491.391 10.3068 491.235 10.983 491.235 11.7045V12.8636C491.235 13.8523 491.405 14.6903 491.746 15.3778C492.093 16.0597 492.573 16.5795 493.186 16.9375C493.8 17.2898 494.513 17.4659 495.326 17.4659C495.854 17.4659 496.331 17.392 496.757 17.2443C497.189 17.0909 497.561 16.8636 497.874 16.5625C498.186 16.2557 498.428 15.875 498.598 15.4205L500.542 15.9659C500.337 16.625 499.993 17.2045 499.51 17.7045C499.027 18.1989 498.431 18.5852 497.721 18.8636C497.01 19.1364 496.212 19.2727 495.326 19.2727ZM513.078 8.84091L511.272 9.35227C511.158 9.05114 510.99 8.75852 510.769 8.47443C510.553 8.18466 510.257 7.94602 509.882 7.75852C509.507 7.57102 509.027 7.47727 508.442 7.47727C507.641 7.47727 506.973 7.66193 506.439 8.03125C505.911 8.39489 505.647 8.85795 505.647 9.42045C505.647 9.92045 505.828 10.3153 506.192 10.6051C506.556 10.8949 507.124 11.1364 507.897 11.3295L509.84 11.8068C511.01 12.0909 511.882 12.5256 512.456 13.1108C513.03 13.6903 513.317 14.4375 513.317 15.3523C513.317 16.1023 513.101 16.7727 512.669 17.3636C512.243 17.9545 511.647 18.4205 510.88 18.7614C510.113 19.1023 509.221 19.2727 508.203 19.2727C506.868 19.2727 505.763 18.983 504.888 18.4034C504.013 17.8239 503.459 16.9773 503.226 15.8636L505.135 15.3864C505.317 16.0909 505.661 16.6193 506.167 16.9716C506.678 17.3239 507.346 17.5 508.169 17.5C509.107 17.5 509.851 17.3011 510.402 16.9034C510.959 16.5 511.238 16.017 511.238 15.4545C511.238 15 511.078 14.6193 510.76 14.3125C510.442 14 509.953 13.767 509.294 13.6136L507.113 13.1023C505.914 12.8182 505.033 12.3778 504.471 11.7812C503.914 11.179 503.635 10.4261 503.635 9.52273C503.635 8.78409 503.843 8.13068 504.257 7.5625C504.678 6.99432 505.249 6.5483 505.971 6.22443C506.698 5.90057 507.522 5.73864 508.442 5.73864C509.738 5.73864 510.755 6.02273 511.493 6.59091C512.238 7.15909 512.766 7.90909 513.078 8.84091ZM522.038 5.90909V7.61364H515.254V5.90909H522.038ZM517.231 2.77273H519.243V15.25C519.243 15.8182 519.325 16.2443 519.49 16.5284C519.66 16.8068 519.876 16.9943 520.137 17.0909C520.404 17.1818 520.686 17.2273 520.981 17.2273C521.203 17.2273 521.385 17.2159 521.527 17.1932C521.669 17.1648 521.782 17.142 521.868 17.125L522.277 18.9318C522.14 18.983 521.95 19.0341 521.706 19.0852C521.461 19.142 521.152 19.1705 520.777 19.1705C520.208 19.1705 519.652 19.0483 519.106 18.804C518.566 18.5597 518.118 18.1875 517.76 17.6875C517.407 17.1875 517.231 16.5568 517.231 15.7955V2.77273ZM537.643 5.90909V7.61364H530.586V5.90909H537.643ZM532.7 19V4.10227C532.7 3.35227 532.876 2.72727 533.228 2.22727C533.581 1.72727 534.038 1.35227 534.6 1.10227C535.163 0.852272 535.757 0.727272 536.382 0.727272C536.876 0.727272 537.279 0.767045 537.592 0.846591C537.904 0.926136 538.137 0.999999 538.291 1.06818L537.711 2.80682C537.609 2.77273 537.467 2.73011 537.285 2.67898C537.109 2.62784 536.876 2.60227 536.586 2.60227C535.922 2.60227 535.441 2.76989 535.146 3.10511C534.856 3.44034 534.711 3.93182 534.711 4.57954V19H532.7ZM540.462 19V5.90909H542.405V7.88636H542.542C542.78 7.23864 543.212 6.71307 543.837 6.30966C544.462 5.90625 545.167 5.70454 545.951 5.70454C546.098 5.70454 546.283 5.70739 546.505 5.71307C546.726 5.71875 546.894 5.72727 547.007 5.73864V7.78409C546.939 7.76705 546.783 7.74148 546.539 7.70739C546.3 7.66761 546.047 7.64773 545.78 7.64773C545.144 7.64773 544.576 7.78125 544.076 8.0483C543.581 8.30966 543.189 8.6733 542.9 9.1392C542.615 9.59943 542.473 10.125 542.473 10.7159V19H540.462ZM554.311 19.2727C553.13 19.2727 552.093 18.9915 551.201 18.429C550.314 17.8665 549.621 17.0795 549.121 16.0682C548.627 15.0568 548.38 13.875 548.38 12.5227C548.38 11.1591 548.627 9.96875 549.121 8.9517C549.621 7.93466 550.314 7.14489 551.201 6.58239C552.093 6.01989 553.13 5.73864 554.311 5.73864C555.493 5.73864 556.527 6.01989 557.414 6.58239C558.306 7.14489 558.999 7.93466 559.493 8.9517C559.993 9.96875 560.243 11.1591 560.243 12.5227C560.243 13.875 559.993 15.0568 559.493 16.0682C558.999 17.0795 558.306 17.8665 557.414 18.429C556.527 18.9915 555.493 19.2727 554.311 19.2727ZM554.311 17.4659C555.209 17.4659 555.948 17.2358 556.527 16.7756C557.107 16.3153 557.536 15.7102 557.814 14.9602C558.093 14.2102 558.232 13.3977 558.232 12.5227C558.232 11.6477 558.093 10.8324 557.814 10.0767C557.536 9.32102 557.107 8.71023 556.527 8.24432C555.948 7.77841 555.209 7.54545 554.311 7.54545C553.414 7.54545 552.675 7.77841 552.096 8.24432C551.516 8.71023 551.087 9.32102 550.809 10.0767C550.53 10.8324 550.391 11.6477 550.391 12.5227C550.391 13.3977 550.53 14.2102 550.809 14.9602C551.087 15.7102 551.516 16.3153 552.096 16.7756C552.675 17.2358 553.414 17.4659 554.311 17.4659ZM563.314 19V5.90909H565.257V7.95455H565.427C565.7 7.25568 566.14 6.71307 566.748 6.3267C567.356 5.93466 568.086 5.73864 568.939 5.73864C569.802 5.73864 570.521 5.93466 571.095 6.3267C571.674 6.71307 572.126 7.25568 572.45 7.95455H572.586C572.922 7.27841 573.424 6.74148 574.095 6.34375C574.765 5.94034 575.569 5.73864 576.507 5.73864C577.677 5.73864 578.635 6.10511 579.379 6.83807C580.123 7.56534 580.495 8.69886 580.495 10.2386V19H578.484V10.2386C578.484 9.27273 578.22 8.58239 577.691 8.16761C577.163 7.75284 576.541 7.54545 575.825 7.54545C574.904 7.54545 574.191 7.82386 573.686 8.38068C573.18 8.93182 572.927 9.63068 572.927 10.4773V19H570.882V10.0341C570.882 9.28977 570.64 8.69034 570.157 8.2358C569.674 7.77557 569.052 7.54545 568.291 7.54545C567.768 7.54545 567.279 7.68466 566.825 7.96307C566.376 8.24148 566.012 8.62784 565.734 9.12216C565.461 9.6108 565.325 10.1761 565.325 10.8182V19H563.314ZM605.923 10.2727C605.923 12.1136 605.591 13.7045 604.926 15.0455C604.261 16.3864 603.349 17.4205 602.19 18.1477C601.031 18.875 599.707 19.2386 598.218 19.2386C596.73 19.2386 595.406 18.875 594.247 18.1477C593.088 17.4205 592.176 16.3864 591.511 15.0455C590.846 13.7045 590.514 12.1136 590.514 10.2727C590.514 8.43182 590.846 6.84091 591.511 5.5C592.176 4.15909 593.088 3.125 594.247 2.39773C595.406 1.67045 596.73 1.30682 598.218 1.30682C599.707 1.30682 601.031 1.67045 602.19 2.39773C603.349 3.125 604.261 4.15909 604.926 5.5C605.591 6.84091 605.923 8.43182 605.923 10.2727ZM603.877 10.2727C603.877 8.76136 603.625 7.4858 603.119 6.44602C602.619 5.40625 601.94 4.61932 601.082 4.08523C600.23 3.55114 599.275 3.28409 598.218 3.28409C597.162 3.28409 596.204 3.55114 595.346 4.08523C594.494 4.61932 593.815 5.40625 593.309 6.44602C592.809 7.4858 592.559 8.76136 592.559 10.2727C592.559 11.7841 592.809 13.0597 593.309 14.0994C593.815 15.1392 594.494 15.9261 595.346 16.4602C596.204 16.9943 597.162 17.2614 598.218 17.2614C599.275 17.2614 600.23 16.9943 601.082 16.4602C601.94 15.9261 602.619 15.1392 603.119 14.0994C603.625 13.0597 603.877 11.7841 603.877 10.2727ZM609.204 23.9091V5.90909H611.147V7.98864H611.386C611.534 7.76136 611.738 7.47159 612 7.11932C612.267 6.76136 612.647 6.44318 613.142 6.16477C613.642 5.88068 614.318 5.73864 615.17 5.73864C616.272 5.73864 617.244 6.0142 618.085 6.56534C618.926 7.11648 619.582 7.89773 620.054 8.90909C620.525 9.92045 620.761 11.1136 620.761 12.4886C620.761 13.875 620.525 15.0767 620.054 16.0938C619.582 17.1051 618.929 17.8892 618.093 18.446C617.258 18.9972 616.295 19.2727 615.204 19.2727C614.363 19.2727 613.69 19.1335 613.184 18.8551C612.679 18.571 612.289 18.25 612.017 17.892C611.744 17.5284 611.534 17.2273 611.386 16.9886H611.216V23.9091H609.204ZM611.181 12.4545C611.181 13.4432 611.326 14.3153 611.616 15.071C611.906 15.821 612.329 16.4091 612.886 16.8352C613.443 17.2557 614.125 17.4659 614.931 17.4659C615.772 17.4659 616.474 17.2443 617.037 16.8011C617.605 16.3523 618.031 15.75 618.315 14.9943C618.605 14.233 618.75 13.3864 618.75 12.4545C618.75 11.5341 618.608 10.7045 618.324 9.96591C618.045 9.22159 617.622 8.63352 617.054 8.2017C616.491 7.7642 615.784 7.54545 614.931 7.54545C614.113 7.54545 613.426 7.75284 612.869 8.16761C612.312 8.5767 611.892 9.15057 611.608 9.8892C611.324 10.6222 611.181 11.4773 611.181 12.4545ZM629.318 19.2727C628.056 19.2727 626.968 18.9943 626.054 18.4375C625.145 17.875 624.443 17.0909 623.949 16.0852C623.46 15.0739 623.216 13.8977 623.216 12.5568C623.216 11.2159 623.46 10.0341 623.949 9.01136C624.443 7.98295 625.13 7.18182 626.011 6.60795C626.897 6.02841 627.931 5.73864 629.113 5.73864C629.795 5.73864 630.468 5.85227 631.133 6.07954C631.798 6.30682 632.403 6.67614 632.949 7.1875C633.494 7.69318 633.929 8.36364 634.252 9.19886C634.576 10.0341 634.738 11.0625 634.738 12.2841V13.1364H624.647V11.3977H632.693C632.693 10.6591 632.545 10 632.25 9.42045C631.96 8.84091 631.545 8.38352 631.005 8.0483C630.471 7.71307 629.841 7.54545 629.113 7.54545C628.312 7.54545 627.619 7.74432 627.034 8.14205C626.454 8.53409 626.008 9.04545 625.696 9.67614C625.383 10.3068 625.227 10.983 625.227 11.7045V12.8636C625.227 13.8523 625.397 14.6903 625.738 15.3778C626.085 16.0597 626.565 16.5795 627.179 16.9375C627.792 17.2898 628.505 17.4659 629.318 17.4659C629.846 17.4659 630.324 17.392 630.75 17.2443C631.181 17.0909 631.554 16.8636 631.866 16.5625C632.179 16.2557 632.42 15.875 632.591 15.4205L634.534 15.9659C634.329 16.625 633.985 17.2045 633.502 17.7045C633.02 18.1989 632.423 18.5852 631.713 18.8636C631.002 19.1364 630.204 19.2727 629.318 19.2727ZM639.809 11.125V19H637.798V5.90909H639.741V7.95455H639.912C640.218 7.28977 640.684 6.75568 641.309 6.35227C641.934 5.94318 642.741 5.73864 643.73 5.73864C644.616 5.73864 645.392 5.92045 646.056 6.28409C646.721 6.64205 647.238 7.1875 647.608 7.92045C647.977 8.64773 648.162 9.56818 648.162 10.6818V19H646.15V10.8182C646.15 9.78977 645.883 8.98864 645.349 8.41477C644.815 7.83523 644.082 7.54545 643.15 7.54545C642.508 7.54545 641.934 7.68466 641.429 7.96307C640.929 8.24148 640.534 8.64773 640.244 9.18182C639.954 9.71591 639.809 10.3636 639.809 11.125ZM652.826 19H650.61L657.019 1.54545H659.201L665.61 19H663.394L658.178 4.30682H658.042L652.826 19ZM653.644 12.1818H662.576V14.0568H653.644V12.1818ZM670.442 1.54545V19H668.328V1.54545H670.442ZM686.85 5.90909V7.61364H680.066V5.90909H686.85ZM682.044 2.77273H684.055V15.25C684.055 15.8182 684.137 16.2443 684.302 16.5284C684.473 16.8068 684.689 16.9943 684.95 17.0909C685.217 17.1818 685.498 17.2273 685.794 17.2273C686.015 17.2273 686.197 17.2159 686.339 17.1932C686.481 17.1648 686.595 17.142 686.68 17.125L687.089 18.9318C686.953 18.983 686.762 19.0341 686.518 19.0852C686.274 19.142 685.964 19.1705 685.589 19.1705C685.021 19.1705 684.464 19.0483 683.919 18.804C683.379 18.5597 682.93 18.1875 682.572 17.6875C682.22 17.1875 682.044 16.5568 682.044 15.7955V2.77273ZM695.054 19.2727C693.872 19.2727 692.835 18.9915 691.943 18.429C691.056 17.8665 690.363 17.0795 689.863 16.0682C689.369 15.0568 689.122 13.875 689.122 12.5227C689.122 11.1591 689.369 9.96875 689.863 8.9517C690.363 7.93466 691.056 7.14489 691.943 6.58239C692.835 6.01989 693.872 5.73864 695.054 5.73864C696.235 5.73864 697.27 6.01989 698.156 6.58239C699.048 7.14489 699.741 7.93466 700.235 8.9517C700.735 9.96875 700.985 11.1591 700.985 12.5227C700.985 13.875 700.735 15.0568 700.235 16.0682C699.741 17.0795 699.048 17.8665 698.156 18.429C697.27 18.9915 696.235 19.2727 695.054 19.2727ZM695.054 17.4659C695.951 17.4659 696.69 17.2358 697.27 16.7756C697.849 16.3153 698.278 15.7102 698.556 14.9602C698.835 14.2102 698.974 13.3977 698.974 12.5227C698.974 11.6477 698.835 10.8324 698.556 10.0767C698.278 9.32102 697.849 8.71023 697.27 8.24432C696.69 7.77841 695.951 7.54545 695.054 7.54545C694.156 7.54545 693.417 7.77841 692.838 8.24432C692.258 8.71023 691.829 9.32102 691.551 10.0767C691.272 10.8324 691.133 11.6477 691.133 12.5227C691.133 13.3977 691.272 14.2102 691.551 14.9602C691.829 15.7102 692.258 16.3153 692.838 16.7756C693.417 17.2358 694.156 17.4659 695.054 17.4659ZM720.078 8.84091L718.272 9.35227C718.158 9.05114 717.99 8.75852 717.769 8.47443C717.553 8.18466 717.257 7.94602 716.882 7.75852C716.507 7.57102 716.027 7.47727 715.442 7.47727C714.641 7.47727 713.973 7.66193 713.439 8.03125C712.911 8.39489 712.647 8.85795 712.647 9.42045C712.647 9.92045 712.828 10.3153 713.192 10.6051C713.556 10.8949 714.124 11.1364 714.897 11.3295L716.84 11.8068C718.01 12.0909 718.882 12.5256 719.456 13.1108C720.03 13.6903 720.317 14.4375 720.317 15.3523C720.317 16.1023 720.101 16.7727 719.669 17.3636C719.243 17.9545 718.647 18.4205 717.88 18.7614C717.113 19.1023 716.221 19.2727 715.203 19.2727C713.868 19.2727 712.763 18.983 711.888 18.4034C711.013 17.8239 710.459 16.9773 710.226 15.8636L712.135 15.3864C712.317 16.0909 712.661 16.6193 713.167 16.9716C713.678 17.3239 714.346 17.5 715.169 17.5C716.107 17.5 716.851 17.3011 717.402 16.9034C717.959 16.5 718.238 16.017 718.238 15.4545C718.238 15 718.078 14.6193 717.76 14.3125C717.442 14 716.953 13.767 716.294 13.6136L714.113 13.1023C712.914 12.8182 712.033 12.3778 711.471 11.7812C710.914 11.179 710.635 10.4261 710.635 9.52273C710.635 8.78409 710.843 8.13068 711.257 7.5625C711.678 6.99432 712.249 6.5483 712.971 6.22443C713.698 5.90057 714.522 5.73864 715.442 5.73864C716.738 5.73864 717.755 6.02273 718.493 6.59091C719.238 7.15909 719.766 7.90909 720.078 8.84091ZM728.663 19.2727C727.481 19.2727 726.444 18.9915 725.552 18.429C724.666 17.8665 723.973 17.0795 723.473 16.0682C722.978 15.0568 722.731 13.875 722.731 12.5227C722.731 11.1591 722.978 9.96875 723.473 8.9517C723.973 7.93466 724.666 7.14489 725.552 6.58239C726.444 6.01989 727.481 5.73864 728.663 5.73864C729.845 5.73864 730.879 6.01989 731.765 6.58239C732.657 7.14489 733.35 7.93466 733.845 8.9517C734.345 9.96875 734.595 11.1591 734.595 12.5227C734.595 13.875 734.345 15.0568 733.845 16.0682C733.35 17.0795 732.657 17.8665 731.765 18.429C730.879 18.9915 729.845 19.2727 728.663 19.2727ZM728.663 17.4659C729.561 17.4659 730.299 17.2358 730.879 16.7756C731.458 16.3153 731.887 15.7102 732.166 14.9602C732.444 14.2102 732.583 13.3977 732.583 12.5227C732.583 11.6477 732.444 10.8324 732.166 10.0767C731.887 9.32102 731.458 8.71023 730.879 8.24432C730.299 7.77841 729.561 7.54545 728.663 7.54545C727.765 7.54545 727.027 7.77841 726.447 8.24432C725.868 8.71023 725.439 9.32102 725.16 10.0767C724.882 10.8324 724.743 11.6477 724.743 12.5227C724.743 13.3977 724.882 14.2102 725.16 14.9602C725.439 15.7102 725.868 16.3153 726.447 16.7756C727.027 17.2358 727.765 17.4659 728.663 17.4659ZM739.676 1.54545V19H737.665V1.54545H739.676ZM754.065 5.90909L749.224 19H747.179L742.338 5.90909H744.52L748.133 16.3409H748.27L751.883 5.90909H754.065ZM761.74 19.2727C760.478 19.2727 759.39 18.9943 758.475 18.4375C757.566 17.875 756.865 17.0909 756.37 16.0852C755.882 15.0739 755.637 13.8977 755.637 12.5568C755.637 11.2159 755.882 10.0341 756.37 9.01136C756.865 7.98295 757.552 7.18182 758.433 6.60795C759.319 6.02841 760.353 5.73864 761.535 5.73864C762.217 5.73864 762.89 5.85227 763.555 6.07954C764.22 6.30682 764.825 6.67614 765.37 7.1875C765.916 7.69318 766.35 8.36364 766.674 9.19886C766.998 10.0341 767.16 11.0625 767.16 12.2841V13.1364H757.069V11.3977H765.115C765.115 10.6591 764.967 10 764.672 9.42045C764.382 8.84091 763.967 8.38352 763.427 8.0483C762.893 7.71307 762.262 7.54545 761.535 7.54545C760.734 7.54545 760.041 7.74432 759.456 8.14205C758.876 8.53409 758.43 9.04545 758.118 9.67614C757.805 10.3068 757.649 10.983 757.649 11.7045V12.8636C757.649 13.8523 757.819 14.6903 758.16 15.3778C758.507 16.0597 758.987 16.5795 759.6 16.9375C760.214 17.2898 760.927 17.4659 761.74 17.4659C762.268 17.4659 762.745 17.392 763.172 17.2443C763.603 17.0909 763.975 16.8636 764.288 16.5625C764.6 16.2557 764.842 15.875 765.012 15.4205L766.956 15.9659C766.751 16.625 766.407 17.2045 765.924 17.7045C765.441 18.1989 764.845 18.5852 764.135 18.8636C763.424 19.1364 762.626 19.2727 761.74 19.2727ZM124.493 52.9091V34.9091H126.436V36.9886H126.675C126.823 36.7614 127.027 36.4716 127.289 36.1193C127.556 35.7614 127.936 35.4432 128.431 35.1648C128.931 34.8807 129.607 34.7386 130.459 34.7386C131.561 34.7386 132.533 35.0142 133.374 35.5653C134.215 36.1165 134.871 36.8977 135.343 37.9091C135.814 38.9205 136.05 40.1136 136.05 41.4886C136.05 42.875 135.814 44.0767 135.343 45.0938C134.871 46.1051 134.218 46.8892 133.382 47.446C132.547 47.9972 131.584 48.2727 130.493 48.2727C129.652 48.2727 128.979 48.1335 128.473 47.8551C127.968 47.571 127.578 47.25 127.306 46.892C127.033 46.5284 126.823 46.2273 126.675 45.9886H126.505V52.9091H124.493ZM126.471 41.4545C126.471 42.4432 126.615 43.3153 126.905 44.071C127.195 44.821 127.618 45.4091 128.175 45.8352C128.732 46.2557 129.414 46.4659 130.221 46.4659C131.061 46.4659 131.763 46.2443 132.326 45.8011C132.894 45.3523 133.32 44.75 133.604 43.9943C133.894 43.233 134.039 42.3864 134.039 41.4545C134.039 40.5341 133.897 39.7045 133.613 38.9659C133.334 38.2216 132.911 37.6335 132.343 37.2017C131.78 36.7642 131.073 36.5455 130.221 36.5455C129.402 36.5455 128.715 36.7528 128.158 37.1676C127.601 37.5767 127.181 38.1506 126.897 38.8892C126.613 39.6222 126.471 40.4773 126.471 41.4545ZM139.118 48V34.9091H141.061V36.8864H141.198C141.436 36.2386 141.868 35.7131 142.493 35.3097C143.118 34.9062 143.823 34.7045 144.607 34.7045C144.755 34.7045 144.939 34.7074 145.161 34.7131C145.382 34.7187 145.55 34.7273 145.664 34.7386V36.7841C145.596 36.767 145.439 36.7415 145.195 36.7074C144.956 36.6676 144.703 36.6477 144.436 36.6477C143.8 36.6477 143.232 36.7812 142.732 37.0483C142.238 37.3097 141.846 37.6733 141.556 38.1392C141.272 38.5994 141.13 39.125 141.13 39.7159V48H139.118ZM152.968 48.2727C151.786 48.2727 150.749 47.9915 149.857 47.429C148.971 46.8665 148.277 46.0795 147.777 45.0682C147.283 44.0568 147.036 42.875 147.036 41.5227C147.036 40.1591 147.283 38.9687 147.777 37.9517C148.277 36.9347 148.971 36.1449 149.857 35.5824C150.749 35.0199 151.786 34.7386 152.968 34.7386C154.15 34.7386 155.184 35.0199 156.07 35.5824C156.962 36.1449 157.655 36.9347 158.15 37.9517C158.65 38.9687 158.9 40.1591 158.9 41.5227C158.9 42.875 158.65 44.0568 158.15 45.0682C157.655 46.0795 156.962 46.8665 156.07 47.429C155.184 47.9915 154.15 48.2727 152.968 48.2727ZM152.968 46.4659C153.865 46.4659 154.604 46.2358 155.184 45.7756C155.763 45.3153 156.192 44.7102 156.471 43.9602C156.749 43.2102 156.888 42.3977 156.888 41.5227C156.888 40.6477 156.749 39.8324 156.471 39.0767C156.192 38.321 155.763 37.7102 155.184 37.2443C154.604 36.7784 153.865 36.5455 152.968 36.5455C152.07 36.5455 151.331 36.7784 150.752 37.2443C150.172 37.7102 149.743 38.321 149.465 39.0767C149.186 39.8324 149.047 40.6477 149.047 41.5227C149.047 42.3977 149.186 43.2102 149.465 43.9602C149.743 44.7102 150.172 45.3153 150.752 45.7756C151.331 46.2358 152.07 46.4659 152.968 46.4659ZM162.243 48V30.5455H164.254V36.9886H164.424C164.572 36.7614 164.777 36.4716 165.038 36.1193C165.305 35.7614 165.686 35.4432 166.18 35.1648C166.68 34.8807 167.356 34.7386 168.208 34.7386C169.311 34.7386 170.282 35.0142 171.123 35.5653C171.964 36.1165 172.62 36.8977 173.092 37.9091C173.564 38.9205 173.799 40.1136 173.799 41.4886C173.799 42.875 173.564 44.0767 173.092 45.0938C172.62 46.1051 171.967 46.8892 171.132 47.446C170.297 47.9972 169.333 48.2727 168.243 48.2727C167.402 48.2727 166.728 48.1335 166.223 47.8551C165.717 47.571 165.328 47.25 165.055 46.892C164.782 46.5284 164.572 46.2273 164.424 45.9886H164.186V48H162.243ZM164.22 41.4545C164.22 42.4432 164.365 43.3153 164.654 44.071C164.944 44.821 165.368 45.4091 165.924 45.8352C166.481 46.2557 167.163 46.4659 167.97 46.4659C168.811 46.4659 169.512 46.2443 170.075 45.8011C170.643 45.3523 171.069 44.75 171.353 43.9943C171.643 43.233 171.788 42.3864 171.788 41.4545C171.788 40.5341 171.646 39.7045 171.362 38.9659C171.083 38.2216 170.66 37.6335 170.092 37.2017C169.529 36.7642 168.822 36.5455 167.97 36.5455C167.152 36.5455 166.464 36.7528 165.907 37.1676C165.35 37.5767 164.93 38.1506 164.646 38.8892C164.362 39.6222 164.22 40.4773 164.22 41.4545ZM178.887 30.5455V48H176.876V30.5455H178.887ZM188.06 48.2727C186.799 48.2727 185.711 47.9943 184.796 47.4375C183.887 46.875 183.185 46.0909 182.691 45.0852C182.202 44.0739 181.958 42.8977 181.958 41.5568C181.958 40.2159 182.202 39.0341 182.691 38.0114C183.185 36.983 183.873 36.1818 184.753 35.608C185.64 35.0284 186.674 34.7386 187.855 34.7386C188.537 34.7386 189.211 34.8523 189.875 35.0795C190.54 35.3068 191.145 35.6761 191.691 36.1875C192.236 36.6932 192.671 37.3636 192.995 38.1989C193.319 39.0341 193.48 40.0625 193.48 41.2841V42.1364H183.39V40.3977H191.435C191.435 39.6591 191.287 39 190.992 38.4205C190.702 37.8409 190.287 37.3835 189.748 37.0483C189.213 36.7131 188.583 36.5455 187.855 36.5455C187.054 36.5455 186.361 36.7443 185.776 37.142C185.196 37.5341 184.75 38.0455 184.438 38.6761C184.125 39.3068 183.969 39.983 183.969 40.7045V41.8636C183.969 42.8523 184.14 43.6903 184.48 44.3778C184.827 45.0597 185.307 45.5795 185.921 45.9375C186.534 46.2898 187.248 46.4659 188.06 46.4659C188.588 46.4659 189.066 46.392 189.492 46.2443C189.924 46.0909 190.296 45.8636 190.608 45.5625C190.921 45.2557 191.162 44.875 191.333 44.4205L193.276 44.9659C193.071 45.625 192.728 46.2045 192.245 46.7045C191.762 47.1989 191.165 47.5852 190.455 47.8636C189.745 48.1364 188.946 48.2727 188.06 48.2727ZM196.54 48V34.9091H198.483V36.9545H198.654C198.926 36.2557 199.367 35.7131 199.975 35.3267C200.583 34.9347 201.313 34.7386 202.165 34.7386C203.029 34.7386 203.748 34.9347 204.321 35.3267C204.901 35.7131 205.353 36.2557 205.676 36.9545H205.813C206.148 36.2784 206.651 35.7415 207.321 35.3438C207.992 34.9403 208.796 34.7386 209.733 34.7386C210.904 34.7386 211.861 35.1051 212.605 35.8381C213.35 36.5653 213.722 37.6989 213.722 39.2386V48H211.711V39.2386C211.711 38.2727 211.446 37.5824 210.918 37.1676C210.39 36.7528 209.767 36.5455 209.051 36.5455C208.131 36.5455 207.418 36.8239 206.912 37.3807C206.407 37.9318 206.154 38.6307 206.154 39.4773V48H204.108V39.0341C204.108 38.2898 203.867 37.6903 203.384 37.2358C202.901 36.7756 202.279 36.5455 201.517 36.5455C200.995 36.5455 200.506 36.6847 200.051 36.9631C199.603 37.2415 199.239 37.6278 198.961 38.1222C198.688 38.6108 198.551 39.1761 198.551 39.8182V48H196.54ZM226.672 37.8409L224.865 38.3523C224.752 38.0511 224.584 37.7585 224.363 37.4744C224.147 37.1847 223.851 36.946 223.476 36.7585C223.101 36.571 222.621 36.4773 222.036 36.4773C221.235 36.4773 220.567 36.6619 220.033 37.0312C219.505 37.3949 219.24 37.858 219.24 38.4205C219.24 38.9205 219.422 39.3153 219.786 39.6051C220.15 39.8949 220.718 40.1364 221.49 40.3295L223.434 40.8068C224.604 41.0909 225.476 41.5256 226.05 42.1108C226.624 42.6903 226.911 43.4375 226.911 44.3523C226.911 45.1023 226.695 45.7727 226.263 46.3636C225.837 46.9545 225.24 47.4205 224.473 47.7614C223.706 48.1023 222.814 48.2727 221.797 48.2727C220.462 48.2727 219.357 47.983 218.482 47.4034C217.607 46.8239 217.053 45.9773 216.82 44.8636L218.729 44.3864C218.911 45.0909 219.255 45.6193 219.76 45.9716C220.272 46.3239 220.939 46.5 221.763 46.5C222.701 46.5 223.445 46.3011 223.996 45.9034C224.553 45.5 224.831 45.017 224.831 44.4545C224.831 44 224.672 43.6193 224.354 43.3125C224.036 43 223.547 42.767 222.888 42.6136L220.706 42.1023C219.507 41.8182 218.627 41.3778 218.064 40.7812C217.507 40.179 217.229 39.4261 217.229 38.5227C217.229 37.7841 217.436 37.1307 217.851 36.5625C218.272 35.9943 218.843 35.5483 219.564 35.2244C220.292 34.9006 221.115 34.7386 222.036 34.7386C223.331 34.7386 224.348 35.0227 225.087 35.5909C225.831 36.1591 226.36 36.9091 226.672 37.8409ZM232.939 45.6136L232.802 46.5341C232.706 47.1818 232.558 47.875 232.359 48.6136C232.166 49.3523 231.964 50.0483 231.754 50.7017C231.544 51.3551 231.37 51.875 231.234 52.2614H229.7C229.774 51.8977 229.87 51.4176 229.99 50.821C230.109 50.2244 230.228 49.5568 230.348 48.8182C230.473 48.0852 230.575 47.3352 230.654 46.5682L230.757 45.6136H232.939ZM246.381 48L242.392 34.9091H244.506L247.336 44.9318H247.472L250.267 34.9091H252.415L255.176 44.8977H255.313L258.142 34.9091H260.256L256.267 48H254.29L251.426 37.9432H251.222L248.358 48H246.381ZM262.915 48V34.9091H264.858V36.8864H264.995C265.233 36.2386 265.665 35.7131 266.29 35.3097C266.915 34.9062 267.62 34.7045 268.404 34.7045C268.551 34.7045 268.736 34.7074 268.958 34.7131C269.179 34.7187 269.347 34.7273 269.461 34.7386V36.7841C269.392 36.767 269.236 36.7415 268.992 36.7074C268.753 36.6676 268.5 36.6477 268.233 36.6477C267.597 36.6477 267.029 36.7812 266.529 37.0483C266.034 37.3097 265.642 37.6733 265.353 38.1392C265.069 38.5994 264.926 39.125 264.926 39.7159V48H262.915ZM271.845 48V34.9091H273.856V48H271.845ZM272.868 32.7273C272.475 32.7273 272.137 32.5938 271.853 32.3267C271.575 32.0597 271.436 31.7386 271.436 31.3636C271.436 30.9886 271.575 30.6676 271.853 30.4006C272.137 30.1335 272.475 30 272.868 30C273.26 30 273.595 30.1335 273.873 30.4006C274.157 30.6676 274.299 30.9886 274.299 31.3636C274.299 31.7386 274.157 32.0597 273.873 32.3267C273.595 32.5938 273.26 32.7273 272.868 32.7273ZM283.233 34.9091V36.6136H276.449V34.9091H283.233ZM278.426 31.7727H280.438V44.25C280.438 44.8182 280.52 45.2443 280.685 45.5284C280.855 45.8068 281.071 45.9943 281.333 46.0909C281.6 46.1818 281.881 46.2273 282.176 46.2273C282.398 46.2273 282.58 46.2159 282.722 46.1932C282.864 46.1648 282.978 46.142 283.063 46.125L283.472 47.9318C283.336 47.983 283.145 48.0341 282.901 48.0852C282.657 48.142 282.347 48.1705 281.972 48.1705C281.404 48.1705 280.847 48.0483 280.301 47.804C279.762 47.5597 279.313 47.1875 278.955 46.6875C278.603 46.1875 278.426 45.5568 278.426 44.7955V31.7727ZM291.607 48.2727C290.346 48.2727 289.257 47.9943 288.343 47.4375C287.434 46.875 286.732 46.0909 286.238 45.0852C285.749 44.0739 285.505 42.8977 285.505 41.5568C285.505 40.2159 285.749 39.0341 286.238 38.0114C286.732 36.983 287.419 36.1818 288.3 35.608C289.186 35.0284 290.221 34.7386 291.402 34.7386C292.084 34.7386 292.757 34.8523 293.422 35.0795C294.087 35.3068 294.692 35.6761 295.238 36.1875C295.783 36.6932 296.218 37.3636 296.542 38.1989C296.865 39.0341 297.027 40.0625 297.027 41.2841V42.1364H286.936V40.3977H294.982C294.982 39.6591 294.834 39 294.539 38.4205C294.249 37.8409 293.834 37.3835 293.294 37.0483C292.76 36.7131 292.13 36.5455 291.402 36.5455C290.601 36.5455 289.908 36.7443 289.323 37.142C288.743 37.5341 288.297 38.0455 287.985 38.6761C287.672 39.3068 287.516 39.983 287.516 40.7045V41.8636C287.516 42.8523 287.686 43.6903 288.027 44.3778C288.374 45.0597 288.854 45.5795 289.468 45.9375C290.081 46.2898 290.794 46.4659 291.607 46.4659C292.135 46.4659 292.613 46.392 293.039 46.2443C293.471 46.0909 293.843 45.8636 294.155 45.5625C294.468 45.2557 294.709 44.875 294.88 44.4205L296.823 44.9659C296.618 45.625 296.275 46.2045 295.792 46.7045C295.309 47.1989 294.712 47.5852 294.002 47.8636C293.292 48.1364 292.493 48.2727 291.607 48.2727ZM316.11 37.8409L314.303 38.3523C314.189 38.0511 314.022 37.7585 313.8 37.4744C313.584 37.1847 313.289 36.946 312.914 36.7585C312.539 36.571 312.059 36.4773 311.473 36.4773C310.672 36.4773 310.005 36.6619 309.471 37.0312C308.942 37.3949 308.678 37.858 308.678 38.4205C308.678 38.9205 308.86 39.3153 309.223 39.6051C309.587 39.8949 310.155 40.1364 310.928 40.3295L312.871 40.8068C314.042 41.0909 314.914 41.5256 315.488 42.1108C316.061 42.6903 316.348 43.4375 316.348 44.3523C316.348 45.1023 316.132 45.7727 315.701 46.3636C315.275 46.9545 314.678 47.4205 313.911 47.7614C313.144 48.1023 312.252 48.2727 311.235 48.2727C309.9 48.2727 308.794 47.983 307.919 47.4034C307.044 46.8239 306.49 45.9773 306.257 44.8636L308.167 44.3864C308.348 45.0909 308.692 45.6193 309.198 45.9716C309.709 46.3239 310.377 46.5 311.201 46.5C312.138 46.5 312.882 46.3011 313.434 45.9034C313.99 45.5 314.269 45.017 314.269 44.4545C314.269 44 314.11 43.6193 313.792 43.3125C313.473 43 312.985 42.767 312.326 42.6136L310.144 42.1023C308.945 41.8182 308.064 41.3778 307.502 40.7812C306.945 40.179 306.667 39.4261 306.667 38.5227C306.667 37.7841 306.874 37.1307 307.289 36.5625C307.709 35.9943 308.28 35.5483 309.002 35.2244C309.729 34.9006 310.553 34.7386 311.473 34.7386C312.769 34.7386 313.786 35.0227 314.525 35.5909C315.269 36.1591 315.797 36.9091 316.11 37.8409ZM324.694 48.2727C323.512 48.2727 322.475 47.9915 321.583 47.429C320.697 46.8665 320.004 46.0795 319.504 45.0682C319.01 44.0568 318.762 42.875 318.762 41.5227C318.762 40.1591 319.01 38.9687 319.504 37.9517C320.004 36.9347 320.697 36.1449 321.583 35.5824C322.475 35.0199 323.512 34.7386 324.694 34.7386C325.876 34.7386 326.91 35.0199 327.797 35.5824C328.689 36.1449 329.382 36.9347 329.876 37.9517C330.376 38.9687 330.626 40.1591 330.626 41.5227C330.626 42.875 330.376 44.0568 329.876 45.0682C329.382 46.0795 328.689 46.8665 327.797 47.429C326.91 47.9915 325.876 48.2727 324.694 48.2727ZM324.694 46.4659C325.592 46.4659 326.331 46.2358 326.91 45.7756C327.49 45.3153 327.919 44.7102 328.197 43.9602C328.475 43.2102 328.615 42.3977 328.615 41.5227C328.615 40.6477 328.475 39.8324 328.197 39.0767C327.919 38.321 327.49 37.7102 326.91 37.2443C326.331 36.7784 325.592 36.5455 324.694 36.5455C323.797 36.5455 323.058 36.7784 322.478 37.2443C321.899 37.7102 321.47 38.321 321.191 39.0767C320.913 39.8324 320.774 40.6477 320.774 41.5227C320.774 42.3977 320.913 43.2102 321.191 43.9602C321.47 44.7102 321.899 45.3153 322.478 45.7756C323.058 46.2358 323.797 46.4659 324.694 46.4659ZM335.708 30.5455V48H333.696V30.5455H335.708ZM347.642 42.6477V34.9091H349.653V48H347.642V45.7841H347.505C347.199 46.4489 346.721 47.0142 346.074 47.4801C345.426 47.9403 344.608 48.1705 343.619 48.1705C342.801 48.1705 342.074 47.9915 341.437 47.6335C340.801 47.2699 340.301 46.7244 339.937 45.9972C339.574 45.2642 339.392 44.3409 339.392 43.2273V34.9091H341.403V43.0909C341.403 44.0455 341.67 44.8068 342.204 45.375C342.744 45.9432 343.431 46.2273 344.267 46.2273C344.767 46.2273 345.275 46.0994 345.792 45.8438C346.315 45.5881 346.752 45.196 347.105 44.6676C347.463 44.1392 347.642 43.4659 347.642 42.6477ZM359.03 34.9091V36.6136H352.246V34.9091H359.03ZM354.223 31.7727H356.235V44.25C356.235 44.8182 356.317 45.2443 356.482 45.5284C356.652 45.8068 356.868 45.9943 357.13 46.0909C357.397 46.1818 357.678 46.2273 357.973 46.2273C358.195 46.2273 358.377 46.2159 358.519 46.1932C358.661 46.1648 358.775 46.142 358.86 46.125L359.269 47.9318C359.132 47.983 358.942 48.0341 358.698 48.0852C358.453 48.142 358.144 48.1705 357.769 48.1705C357.201 48.1705 356.644 48.0483 356.098 47.804C355.559 47.5597 355.11 47.1875 354.752 46.6875C354.4 46.1875 354.223 45.5568 354.223 44.7955V31.7727ZM362.056 48V34.9091H364.067V48H362.056ZM363.078 32.7273C362.686 32.7273 362.348 32.5938 362.064 32.3267C361.786 32.0597 361.647 31.7386 361.647 31.3636C361.647 30.9886 361.786 30.6676 362.064 30.4006C362.348 30.1335 362.686 30 363.078 30C363.471 30 363.806 30.1335 364.084 30.4006C364.368 30.6676 364.51 30.9886 364.51 31.3636C364.51 31.7386 364.368 32.0597 364.084 32.3267C363.806 32.5938 363.471 32.7273 363.078 32.7273ZM373.069 48.2727C371.887 48.2727 370.85 47.9915 369.958 47.429C369.072 46.8665 368.379 46.0795 367.879 45.0682C367.385 44.0568 367.137 42.875 367.137 41.5227C367.137 40.1591 367.385 38.9687 367.879 37.9517C368.379 36.9347 369.072 36.1449 369.958 35.5824C370.85 35.0199 371.887 34.7386 373.069 34.7386C374.251 34.7386 375.285 35.0199 376.172 35.5824C377.064 36.1449 377.757 36.9347 378.251 37.9517C378.751 38.9687 379.001 40.1591 379.001 41.5227C379.001 42.875 378.751 44.0568 378.251 45.0682C377.757 46.0795 377.064 46.8665 376.172 47.429C375.285 47.9915 374.251 48.2727 373.069 48.2727ZM373.069 46.4659C373.967 46.4659 374.706 46.2358 375.285 45.7756C375.865 45.3153 376.294 44.7102 376.572 43.9602C376.85 43.2102 376.99 42.3977 376.99 41.5227C376.99 40.6477 376.85 39.8324 376.572 39.0767C376.294 38.321 375.865 37.7102 375.285 37.2443C374.706 36.7784 373.967 36.5455 373.069 36.5455C372.172 36.5455 371.433 36.7784 370.853 37.2443C370.274 37.7102 369.845 38.321 369.566 39.0767C369.288 39.8324 369.149 40.6477 369.149 41.5227C369.149 42.3977 369.288 43.2102 369.566 43.9602C369.845 44.7102 370.274 45.3153 370.853 45.7756C371.433 46.2358 372.172 46.4659 373.069 46.4659ZM384.083 40.125V48H382.071V34.9091H384.015V36.9545H384.185C384.492 36.2898 384.958 35.7557 385.583 35.3523C386.208 34.9432 387.015 34.7386 388.003 34.7386C388.89 34.7386 389.665 34.9205 390.33 35.2841C390.995 35.642 391.512 36.1875 391.881 36.9205C392.25 37.6477 392.435 38.5682 392.435 39.6818V48H390.424V39.8182C390.424 38.7898 390.157 37.9886 389.623 37.4148C389.088 36.8352 388.355 36.5455 387.424 36.5455C386.782 36.5455 386.208 36.6847 385.702 36.9631C385.202 37.2415 384.807 37.6477 384.517 38.1818C384.228 38.7159 384.083 39.3636 384.083 40.125ZM405.383 37.8409L403.576 38.3523C403.463 38.0511 403.295 37.7585 403.074 37.4744C402.858 37.1847 402.562 36.946 402.187 36.7585C401.812 36.571 401.332 36.4773 400.747 36.4773C399.946 36.4773 399.278 36.6619 398.744 37.0312C398.216 37.3949 397.951 37.858 397.951 38.4205C397.951 38.9205 398.133 39.3153 398.497 39.6051C398.86 39.8949 399.429 40.1364 400.201 40.3295L402.145 40.8068C403.315 41.0909 404.187 41.5256 404.761 42.1108C405.335 42.6903 405.622 43.4375 405.622 44.3523C405.622 45.1023 405.406 45.7727 404.974 46.3636C404.548 46.9545 403.951 47.4205 403.184 47.7614C402.417 48.1023 401.525 48.2727 400.508 48.2727C399.173 48.2727 398.068 47.983 397.193 47.4034C396.318 46.8239 395.764 45.9773 395.531 44.8636L397.44 44.3864C397.622 45.0909 397.966 45.6193 398.471 45.9716C398.983 46.3239 399.65 46.5 400.474 46.5C401.412 46.5 402.156 46.3011 402.707 45.9034C403.264 45.5 403.542 45.017 403.542 44.4545C403.542 44 403.383 43.6193 403.065 43.3125C402.747 43 402.258 42.767 401.599 42.6136L399.417 42.1023C398.218 41.8182 397.338 41.3778 396.775 40.7812C396.218 40.179 395.94 39.4261 395.94 38.5227C395.94 37.7841 396.147 37.1307 396.562 36.5625C396.983 35.9943 397.554 35.5483 398.275 35.2244C399.002 34.9006 399.826 34.7386 400.747 34.7386C402.042 34.7386 403.059 35.0227 403.798 35.5909C404.542 36.1591 405.071 36.9091 405.383 37.8409ZM419.252 48.3068C418.422 48.3068 417.669 48.1506 416.993 47.8381C416.317 47.5199 415.78 47.0625 415.382 46.4659C414.985 45.8636 414.786 45.1364 414.786 44.2841C414.786 43.5341 414.934 42.9261 415.229 42.4602C415.525 41.9886 415.919 41.6193 416.414 41.3523C416.908 41.0852 417.453 40.8864 418.05 40.7557C418.652 40.6193 419.257 40.5114 419.865 40.4318C420.661 40.3295 421.306 40.2528 421.8 40.2017C422.3 40.1449 422.664 40.0511 422.891 39.9205C423.124 39.7898 423.24 39.5625 423.24 39.2386V39.1705C423.24 38.3295 423.01 37.6761 422.55 37.2102C422.096 36.7443 421.405 36.5114 420.479 36.5114C419.519 36.5114 418.766 36.7216 418.221 37.142C417.675 37.5625 417.292 38.0114 417.07 38.4886L415.161 37.8068C415.502 37.0114 415.956 36.392 416.525 35.9489C417.098 35.5 417.723 35.1875 418.4 35.0114C419.081 34.8295 419.752 34.7386 420.411 34.7386C420.831 34.7386 421.314 34.7898 421.86 34.892C422.411 34.9886 422.942 35.1903 423.453 35.4972C423.971 35.804 424.4 36.267 424.74 36.8864C425.081 37.5057 425.252 38.3352 425.252 39.375V48H423.24V46.2273H423.138C423.002 46.5114 422.775 46.8153 422.456 47.1392C422.138 47.4631 421.715 47.7386 421.186 47.9659C420.658 48.1932 420.013 48.3068 419.252 48.3068ZM419.559 46.5C420.354 46.5 421.025 46.3438 421.57 46.0312C422.121 45.7188 422.536 45.3153 422.814 44.821C423.098 44.3267 423.24 43.8068 423.24 43.2614V41.4205C423.155 41.5227 422.968 41.6165 422.678 41.7017C422.394 41.7812 422.064 41.8523 421.689 41.9148C421.32 41.9716 420.959 42.0227 420.607 42.0682C420.26 42.108 419.979 42.142 419.763 42.1705C419.24 42.2386 418.752 42.3494 418.297 42.5028C417.848 42.6506 417.485 42.875 417.206 43.1761C416.934 43.4716 416.797 43.875 416.797 44.3864C416.797 45.0852 417.056 45.6136 417.573 45.9716C418.096 46.3239 418.757 46.5 419.559 46.5ZM430.934 40.125V48H428.923V34.9091H430.866V36.9545H431.037C431.343 36.2898 431.809 35.7557 432.434 35.3523C433.059 34.9432 433.866 34.7386 434.855 34.7386C435.741 34.7386 436.517 34.9205 437.181 35.2841C437.846 35.642 438.363 36.1875 438.733 36.9205C439.102 37.6477 439.287 38.5682 439.287 39.6818V48H437.275V39.8182C437.275 38.7898 437.008 37.9886 436.474 37.4148C435.94 36.8352 435.207 36.5455 434.275 36.5455C433.633 36.5455 433.059 36.6847 432.554 36.9631C432.054 37.2415 431.659 37.6477 431.369 38.1818C431.079 38.7159 430.934 39.3636 430.934 40.125ZM447.905 48.2727C446.814 48.2727 445.851 47.9972 445.016 47.446C444.181 46.8892 443.527 46.1051 443.056 45.0938C442.584 44.0767 442.348 42.875 442.348 41.4886C442.348 40.1136 442.584 38.9205 443.056 37.9091C443.527 36.8977 444.184 36.1165 445.025 35.5653C445.865 35.0142 446.837 34.7386 447.939 34.7386C448.792 34.7386 449.465 34.8807 449.959 35.1648C450.459 35.4432 450.84 35.7614 451.101 36.1193C451.368 36.4716 451.576 36.7614 451.723 36.9886H451.894V30.5455H453.905V48H451.962V45.9886H451.723C451.576 46.2273 451.365 46.5284 451.093 46.892C450.82 47.25 450.431 47.571 449.925 47.8551C449.419 48.1335 448.746 48.2727 447.905 48.2727ZM448.178 46.4659C448.985 46.4659 449.667 46.2557 450.223 45.8352C450.78 45.4091 451.203 44.821 451.493 44.071C451.783 43.3153 451.928 42.4432 451.928 41.4545C451.928 40.4773 451.786 39.6222 451.502 38.8892C451.218 38.1506 450.797 37.5767 450.24 37.1676C449.684 36.7528 448.996 36.5455 448.178 36.5455C447.326 36.5455 446.615 36.7642 446.047 37.2017C445.485 37.6335 445.061 38.2216 444.777 38.9659C444.499 39.7045 444.36 40.5341 444.36 41.4545C444.36 42.3864 444.502 43.233 444.786 43.9943C445.076 44.75 445.502 45.3523 446.064 45.8011C446.632 46.2443 447.337 46.4659 448.178 46.4659ZM464.618 48V34.9091H466.561V36.9545H466.732C467.005 36.2557 467.445 35.7131 468.053 35.3267C468.661 34.9347 469.391 34.7386 470.243 34.7386C471.107 34.7386 471.826 34.9347 472.4 35.3267C472.979 35.7131 473.431 36.2557 473.755 36.9545H473.891C474.226 36.2784 474.729 35.7415 475.4 35.3438C476.07 34.9403 476.874 34.7386 477.811 34.7386C478.982 34.7386 479.939 35.1051 480.684 35.8381C481.428 36.5653 481.8 37.6989 481.8 39.2386V48H479.789V39.2386C479.789 38.2727 479.525 37.5824 478.996 37.1676C478.468 36.7528 477.846 36.5455 477.13 36.5455C476.209 36.5455 475.496 36.8239 474.99 37.3807C474.485 37.9318 474.232 38.6307 474.232 39.4773V48H472.186V39.0341C472.186 38.2898 471.945 37.6903 471.462 37.2358C470.979 36.7756 470.357 36.5455 469.596 36.5455C469.073 36.5455 468.584 36.6847 468.13 36.9631C467.681 37.2415 467.317 37.6278 467.039 38.1222C466.766 38.6108 466.63 39.1761 466.63 39.8182V48H464.618ZM489.33 48.3068C488.5 48.3068 487.748 48.1506 487.071 47.8381C486.395 47.5199 485.858 47.0625 485.461 46.4659C485.063 45.8636 484.864 45.1364 484.864 44.2841C484.864 43.5341 485.012 42.9261 485.307 42.4602C485.603 41.9886 485.998 41.6193 486.492 41.3523C486.986 41.0852 487.532 40.8864 488.128 40.7557C488.73 40.6193 489.336 40.5114 489.944 40.4318C490.739 40.3295 491.384 40.2528 491.878 40.2017C492.378 40.1449 492.742 40.0511 492.969 39.9205C493.202 39.7898 493.319 39.5625 493.319 39.2386V39.1705C493.319 38.3295 493.088 37.6761 492.628 37.2102C492.174 36.7443 491.483 36.5114 490.557 36.5114C489.597 36.5114 488.844 36.7216 488.299 37.142C487.753 37.5625 487.37 38.0114 487.148 38.4886L485.239 37.8068C485.58 37.0114 486.034 36.392 486.603 35.9489C487.176 35.5 487.801 35.1875 488.478 35.0114C489.159 34.8295 489.83 34.7386 490.489 34.7386C490.909 34.7386 491.392 34.7898 491.938 34.892C492.489 34.9886 493.02 35.1903 493.532 35.4972C494.049 35.804 494.478 36.267 494.819 36.8864C495.159 37.5057 495.33 38.3352 495.33 39.375V48H493.319V46.2273H493.216C493.08 46.5114 492.853 46.8153 492.534 47.1392C492.216 47.4631 491.793 47.7386 491.265 47.9659C490.736 48.1932 490.091 48.3068 489.33 48.3068ZM489.637 46.5C490.432 46.5 491.103 46.3438 491.648 46.0312C492.199 45.7188 492.614 45.3153 492.892 44.821C493.176 44.3267 493.319 43.8068 493.319 43.2614V41.4205C493.233 41.5227 493.046 41.6165 492.756 41.7017C492.472 41.7812 492.142 41.8523 491.767 41.9148C491.398 41.9716 491.037 42.0227 490.685 42.0682C490.338 42.108 490.057 42.142 489.841 42.1705C489.319 42.2386 488.83 42.3494 488.375 42.5028C487.926 42.6506 487.563 42.875 487.284 43.1761C487.012 43.4716 486.875 43.875 486.875 44.3864C486.875 45.0852 487.134 45.6136 487.651 45.9716C488.174 46.3239 488.836 46.5 489.637 46.5ZM500.876 43.2273L500.842 40.7386H501.251L506.978 34.9091H509.467L503.365 41.0795H503.194L500.876 43.2273ZM499.001 48V30.5455H501.012V48H499.001ZM507.319 48L502.206 41.5227L503.637 40.125L509.876 48H507.319ZM517.005 48.2727C515.744 48.2727 514.656 47.9943 513.741 47.4375C512.832 46.875 512.13 46.0909 511.636 45.0852C511.147 44.0739 510.903 42.8977 510.903 41.5568C510.903 40.2159 511.147 39.0341 511.636 38.0114C512.13 36.983 512.818 36.1818 513.699 35.608C514.585 35.0284 515.619 34.7386 516.801 34.7386C517.483 34.7386 518.156 34.8523 518.821 35.0795C519.485 35.3068 520.091 35.6761 520.636 36.1875C521.181 36.6932 521.616 37.3636 521.94 38.1989C522.264 39.0341 522.426 40.0625 522.426 41.2841V42.1364H512.335V40.3977H520.38C520.38 39.6591 520.233 39 519.937 38.4205C519.647 37.8409 519.233 37.3835 518.693 37.0483C518.159 36.7131 517.528 36.5455 516.801 36.5455C516 36.5455 515.306 36.7443 514.721 37.142C514.142 37.5341 513.696 38.0455 513.383 38.6761C513.071 39.3068 512.914 39.983 512.914 40.7045V41.8636C512.914 42.8523 513.085 43.6903 513.426 44.3778C513.772 45.0597 514.252 45.5795 514.866 45.9375C515.48 46.2898 516.193 46.4659 517.005 46.4659C517.534 46.4659 518.011 46.392 518.437 46.2443C518.869 46.0909 519.241 45.8636 519.554 45.5625C519.866 45.2557 520.108 44.875 520.278 44.4205L522.221 44.9659C522.017 45.625 521.673 46.2045 521.19 46.7045C520.707 47.1989 520.11 47.5852 519.4 47.8636C518.69 48.1364 517.892 48.2727 517.005 48.2727ZM534.247 30.5455V48H532.235V30.5455H534.247ZM537.931 48V34.9091H539.942V48H537.931ZM538.953 32.7273C538.561 32.7273 538.223 32.5938 537.939 32.3267C537.661 32.0597 537.522 31.7386 537.522 31.3636C537.522 30.9886 537.661 30.6676 537.939 30.4006C538.223 30.1335 538.561 30 538.953 30C539.346 30 539.681 30.1335 539.959 30.4006C540.243 30.6676 540.385 30.9886 540.385 31.3636C540.385 31.7386 540.243 32.0597 539.959 32.3267C539.681 32.5938 539.346 32.7273 538.953 32.7273ZM549.456 34.9091V36.6136H542.399V34.9091H549.456ZM544.512 48V33.1023C544.512 32.3523 544.689 31.7273 545.041 31.2273C545.393 30.7273 545.85 30.3523 546.413 30.1023C546.975 29.8523 547.569 29.7273 548.194 29.7273C548.689 29.7273 549.092 29.767 549.404 29.8466C549.717 29.9261 549.95 30 550.103 30.0682L549.524 31.8068C549.422 31.7727 549.279 31.7301 549.098 31.679C548.922 31.6278 548.689 31.6023 548.399 31.6023C547.734 31.6023 547.254 31.7699 546.958 32.1051C546.669 32.4403 546.524 32.9318 546.524 33.5795V48H544.512ZM557.224 48.2727C555.963 48.2727 554.875 47.9943 553.96 47.4375C553.051 46.875 552.349 46.0909 551.855 45.0852C551.366 44.0739 551.122 42.8977 551.122 41.5568C551.122 40.2159 551.366 39.0341 551.855 38.0114C552.349 36.983 553.037 36.1818 553.917 35.608C554.804 35.0284 555.838 34.7386 557.02 34.7386C557.701 34.7386 558.375 34.8523 559.039 35.0795C559.704 35.3068 560.309 35.6761 560.855 36.1875C561.4 36.6932 561.835 37.3636 562.159 38.1989C562.483 39.0341 562.645 40.0625 562.645 41.2841V42.1364H552.554V40.3977H560.599C560.599 39.6591 560.451 39 560.156 38.4205C559.866 37.8409 559.451 37.3835 558.912 37.0483C558.377 36.7131 557.747 36.5455 557.02 36.5455C556.218 36.5455 555.525 36.7443 554.94 37.142C554.36 37.5341 553.914 38.0455 553.602 38.6761C553.289 39.3068 553.133 39.983 553.133 40.7045V41.8636C553.133 42.8523 553.304 43.6903 553.645 44.3778C553.991 45.0597 554.471 45.5795 555.085 45.9375C555.699 46.2898 556.412 46.4659 557.224 46.4659C557.752 46.4659 558.23 46.392 558.656 46.2443C559.088 46.0909 559.46 45.8636 559.772 45.5625C560.085 45.2557 560.326 44.875 560.497 44.4205L562.44 44.9659C562.235 45.625 561.892 46.2045 561.409 46.7045C560.926 47.1989 560.329 47.5852 559.619 47.8636C558.909 48.1364 558.11 48.2727 557.224 48.2727ZM577.943 48.2727C576.681 48.2727 575.593 47.9943 574.679 47.4375C573.77 46.875 573.068 46.0909 572.574 45.0852C572.085 44.0739 571.841 42.8977 571.841 41.5568C571.841 40.2159 572.085 39.0341 572.574 38.0114C573.068 36.983 573.755 36.1818 574.636 35.608C575.522 35.0284 576.556 34.7386 577.738 34.7386C578.42 34.7386 579.093 34.8523 579.758 35.0795C580.423 35.3068 581.028 35.6761 581.574 36.1875C582.119 36.6932 582.554 37.3636 582.877 38.1989C583.201 39.0341 583.363 40.0625 583.363 41.2841V42.1364H573.272V40.3977H581.318C581.318 39.6591 581.17 39 580.875 38.4205C580.585 37.8409 580.17 37.3835 579.63 37.0483C579.096 36.7131 578.466 36.5455 577.738 36.5455C576.937 36.5455 576.244 36.7443 575.659 37.142C575.079 37.5341 574.633 38.0455 574.321 38.6761C574.008 39.3068 573.852 39.983 573.852 40.7045V41.8636C573.852 42.8523 574.022 43.6903 574.363 44.3778C574.71 45.0597 575.19 45.5795 575.804 45.9375C576.417 46.2898 577.13 46.4659 577.943 46.4659C578.471 46.4659 578.949 46.392 579.375 46.2443C579.806 46.0909 580.179 45.8636 580.491 45.5625C580.804 45.2557 581.045 44.875 581.216 44.4205L583.159 44.9659C582.954 45.625 582.61 46.2045 582.127 46.7045C581.645 47.1989 581.048 47.5852 580.338 47.8636C579.627 48.1364 578.829 48.2727 577.943 48.2727ZM590.275 48.3068C589.446 48.3068 588.693 48.1506 588.017 47.8381C587.341 47.5199 586.804 47.0625 586.406 46.4659C586.008 45.8636 585.809 45.1364 585.809 44.2841C585.809 43.5341 585.957 42.9261 586.252 42.4602C586.548 41.9886 586.943 41.6193 587.437 41.3523C587.931 41.0852 588.477 40.8864 589.074 40.7557C589.676 40.6193 590.281 40.5114 590.889 40.4318C591.684 40.3295 592.329 40.2528 592.824 40.2017C593.324 40.1449 593.687 40.0511 593.914 39.9205C594.147 39.7898 594.264 39.5625 594.264 39.2386V39.1705C594.264 38.3295 594.034 37.6761 593.574 37.2102C593.119 36.7443 592.429 36.5114 591.502 36.5114C590.542 36.5114 589.789 36.7216 589.244 37.142C588.699 37.5625 588.315 38.0114 588.093 38.4886L586.184 37.8068C586.525 37.0114 586.98 36.392 587.548 35.9489C588.122 35.5 588.747 35.1875 589.423 35.0114C590.105 34.8295 590.775 34.7386 591.434 34.7386C591.855 34.7386 592.338 34.7898 592.883 34.892C593.434 34.9886 593.966 35.1903 594.477 35.4972C594.994 35.804 595.423 36.267 595.764 36.8864C596.105 37.5057 596.275 38.3352 596.275 39.375V48H594.264V46.2273H594.162C594.025 46.5114 593.798 46.8153 593.48 47.1392C593.162 47.4631 592.738 47.7386 592.21 47.9659C591.681 48.1932 591.037 48.3068 590.275 48.3068ZM590.582 46.5C591.377 46.5 592.048 46.3438 592.593 46.0312C593.145 45.7188 593.559 45.3153 593.838 44.821C594.122 44.3267 594.264 43.8068 594.264 43.2614V41.4205C594.179 41.5227 593.991 41.6165 593.701 41.7017C593.417 41.7812 593.088 41.8523 592.713 41.9148C592.343 41.9716 591.983 42.0227 591.63 42.0682C591.284 42.108 591.002 42.142 590.787 42.1705C590.264 42.2386 589.775 42.3494 589.321 42.5028C588.872 42.6506 588.508 42.875 588.23 43.1761C587.957 43.4716 587.821 43.875 587.821 44.3864C587.821 45.0852 588.079 45.6136 588.596 45.9716C589.119 46.3239 589.781 46.5 590.582 46.5ZM609.219 37.8409L607.412 38.3523C607.299 38.0511 607.131 37.7585 606.909 37.4744C606.694 37.1847 606.398 36.946 606.023 36.7585C605.648 36.571 605.168 36.4773 604.583 36.4773C603.782 36.4773 603.114 36.6619 602.58 37.0312C602.051 37.3949 601.787 37.858 601.787 38.4205C601.787 38.9205 601.969 39.3153 602.333 39.6051C602.696 39.8949 603.265 40.1364 604.037 40.3295L605.98 40.8068C607.151 41.0909 608.023 41.5256 608.597 42.1108C609.171 42.6903 609.458 43.4375 609.458 44.3523C609.458 45.1023 609.242 45.7727 608.81 46.3636C608.384 46.9545 607.787 47.4205 607.02 47.7614C606.253 48.1023 605.361 48.2727 604.344 48.2727C603.009 48.2727 601.904 47.983 601.029 47.4034C600.154 46.8239 599.6 45.9773 599.367 44.8636L601.276 44.3864C601.458 45.0909 601.801 45.6193 602.307 45.9716C602.819 46.3239 603.486 46.5 604.31 46.5C605.248 46.5 605.992 46.3011 606.543 45.9034C607.1 45.5 607.378 45.017 607.378 44.4545C607.378 44 607.219 43.6193 606.901 43.3125C606.583 43 606.094 42.767 605.435 42.6136L603.253 42.1023C602.054 41.8182 601.174 41.3778 600.611 40.7812C600.054 40.179 599.776 39.4261 599.776 38.5227C599.776 37.7841 599.983 37.1307 600.398 36.5625C600.819 35.9943 601.39 35.5483 602.111 35.2244C602.838 34.9006 603.662 34.7386 604.583 34.7386C605.878 34.7386 606.895 35.0227 607.634 35.5909C608.378 36.1591 608.907 36.9091 609.219 37.8409ZM612.485 48V34.9091H614.497V48H612.485ZM613.508 32.7273C613.116 32.7273 612.778 32.5938 612.494 32.3267C612.216 32.0597 612.076 31.7386 612.076 31.3636C612.076 30.9886 612.216 30.6676 612.494 30.4006C612.778 30.1335 613.116 30 613.508 30C613.9 30 614.235 30.1335 614.514 30.4006C614.798 30.6676 614.94 30.9886 614.94 31.3636C614.94 31.7386 614.798 32.0597 614.514 32.3267C614.235 32.5938 613.9 32.7273 613.508 32.7273ZM623.669 48.2727C622.408 48.2727 621.32 47.9943 620.405 47.4375C619.496 46.875 618.794 46.0909 618.3 45.0852C617.811 44.0739 617.567 42.8977 617.567 41.5568C617.567 40.2159 617.811 39.0341 618.3 38.0114C618.794 36.983 619.482 36.1818 620.363 35.608C621.249 35.0284 622.283 34.7386 623.465 34.7386C624.147 34.7386 624.82 34.8523 625.485 35.0795C626.15 35.3068 626.755 35.6761 627.3 36.1875C627.846 36.6932 628.28 37.3636 628.604 38.1989C628.928 39.0341 629.09 40.0625 629.09 41.2841V42.1364H618.999V40.3977H627.044C627.044 39.6591 626.897 39 626.601 38.4205C626.311 37.8409 625.897 37.3835 625.357 37.0483C624.823 36.7131 624.192 36.5455 623.465 36.5455C622.664 36.5455 621.971 36.7443 621.385 37.142C620.806 37.5341 620.36 38.0455 620.047 38.6761C619.735 39.3068 619.578 39.983 619.578 40.7045V41.8636C619.578 42.8523 619.749 43.6903 620.09 44.3778C620.436 45.0597 620.917 45.5795 621.53 45.9375C622.144 46.2898 622.857 46.4659 623.669 46.4659C624.198 46.4659 624.675 46.392 625.101 46.2443C625.533 46.0909 625.905 45.8636 626.218 45.5625C626.53 45.2557 626.772 44.875 626.942 44.4205L628.885 44.9659C628.681 45.625 628.337 46.2045 627.854 46.7045C627.371 47.1989 626.775 47.5852 626.064 47.8636C625.354 48.1364 624.556 48.2727 623.669 48.2727ZM632.15 48V34.9091H634.093V36.8864H634.229C634.468 36.2386 634.9 35.7131 635.525 35.3097C636.15 34.9062 636.854 34.7045 637.638 34.7045C637.786 34.7045 637.971 34.7074 638.192 34.7131C638.414 34.7187 638.581 34.7273 638.695 34.7386V36.7841C638.627 36.767 638.471 36.7415 638.226 36.7074C637.988 36.6676 637.735 36.6477 637.468 36.6477C636.831 36.6477 636.263 36.7812 635.763 37.0483C635.269 37.3097 634.877 37.6733 634.587 38.1392C634.303 38.5994 634.161 39.125 634.161 39.7159V48H632.15ZM641.045 48.1364C640.625 48.1364 640.264 47.9858 639.963 47.6847C639.662 47.3835 639.511 47.0227 639.511 46.6023C639.511 46.1818 639.662 45.821 639.963 45.5199C640.264 45.2187 640.625 45.0682 641.045 45.0682C641.466 45.0682 641.826 45.2187 642.127 45.5199C642.429 45.821 642.579 46.1818 642.579 46.6023C642.579 46.8807 642.508 47.1364 642.366 47.3693C642.23 47.6023 642.045 47.7898 641.812 47.9318C641.585 48.0682 641.329 48.1364 641.045 48.1364Z" fill="#646977"/>
</svg>
